<?xml version="1.0" encoding="utf-8"?>
<!-- Generator: Adobe Illustrator 26.5.0, SVG Export Plug-In . SVG Version: 6.00 Build 0)  -->
<svg version="1.1" id="Capa_1" xmlns="http://www.w3.org/2000/svg" xmlns:xlink="http://www.w3.org/1999/xlink" x="0px" y="0px"
	 viewBox="0 0 1600 1200" style="enable-background:new 0 0 1600 1200;" xml:space="preserve">
<style type="text/css">
	.st0{fill:#FFB7D5;}
	.st1{fill:#CA7358;}
	.st2{fill:none;stroke:#FFB7D5;stroke-width:4;stroke-linecap:round;stroke-linejoin:round;}
	.st3{fill:#F5EBDD;}
	.st4{fill:#30242A;}
	.st5{fill:#A15842;}
	.st6{fill:none;stroke:#30242A;stroke-width:4;stroke-linecap:round;stroke-miterlimit:10;}
	.st7{fill:none;stroke:#30242A;stroke-width:4;stroke-linecap:round;stroke-linejoin:round;}
	.st8{fill:#FFBE21;}
	.st9{fill:#3EC1F3;}
	.st10{fill:none;stroke:#F5EBDD;stroke-width:4;stroke-linecap:round;stroke-miterlimit:10;}
	.st11{fill:none;stroke:#CA7358;stroke-width:4;stroke-miterlimit:10;}
	.st12{fill:#4756DF;}
	.st13{fill:none;stroke:#A15842;stroke-width:4;stroke-linecap:round;stroke-miterlimit:10;}
	.st14{fill:#F4E6D8;}
	.st15{fill:none;}
	.st16{fill:#4856DF;}
	.st17{fill:none;stroke:#3EC1F3;stroke-width:4;stroke-linecap:round;stroke-linejoin:round;}
</style>
<g id="Layer_11">
	<path class="st0" d="M619.9,207.2h19.2c90.7,0,164.3,73.6,164.3,164.3v324.2l0,0H455.6l0,0V371.5
		C455.6,280.7,529.2,207.2,619.9,207.2z"/>
	<path class="st1" d="M692.8,502.6v198.1H538.2V502.6H692.8 M696.8,498.6H534.2v206.1h162.5V498.6z"/>
	<rect x="534.2" y="498.6" class="st1" width="162.5" height="42.6"/>
	<path class="st1" d="M533.5,395.6v306.1h-93.1V395.6H533.5 M537.5,391.6H436.4v314.1h101.1V391.6z"/>
	<path class="st1" d="M820.3,333.7v367H697.5v-367H820.3 M824.3,329.7H693.5v375h130.8V329.7z"/>
	<path class="st1" d="M746.3,379.7h1.9c9,0,16.4,7.3,16.4,16.4l0,0v38.1l0,0h-34.7l0,0v-38.1C729.9,387.1,737.3,379.7,746.3,379.7z"
		/>
	<line class="st2" x1="726" y1="409.5" x2="768.6" y2="409.5"/>
	<path class="st3" d="M746.3,477.5h1.9c9,0,16.4,7.3,16.4,16.4l0,0V532l0,0h-34.7l0,0v-38.1C729.9,484.8,737.3,477.5,746.3,477.5
		L746.3,477.5L746.3,477.5z"/>
	<line class="st2" x1="726" y1="507.2" x2="768.6" y2="507.2"/>
	<path class="st3" d="M746.3,575.3h1.9c9,0,16.4,7.3,16.4,16.4l0,0v38.1l0,0h-34.7l0,0v-38.1C729.9,582.6,737.3,575.3,746.3,575.3
		L746.3,575.3z"/>
	<line class="st2" x1="726" y1="605" x2="768.6" y2="605"/>
	<path class="st4" d="M746.3,673h1.9c9,0,16.4,7.3,16.4,16.4l0,0v35l0,0h-34.7l0,0v-35C729.9,680.3,737.3,673,746.3,673L746.3,673z"
		/>
	<path class="st3" d="M466.3,460.7h1.9c9,0,16.4,7.3,16.4,16.4l0,0v38.1l0,0h-34.7l0,0v-38.1C449.9,468.1,457.3,460.7,466.3,460.7
		L466.3,460.7L466.3,460.7z"/>
	<line class="st2" x1="446" y1="490.5" x2="488.6" y2="490.5"/>
	<path class="st3" d="M466.3,558.5h1.9c9,0,16.4,7.3,16.4,16.4l0,0V613l0,0h-34.7l0,0v-38.1C449.9,565.8,457.3,558.5,466.3,558.5
		C466.3,558.5,466.3,558.5,466.3,558.5z"/>
	<line class="st2" x1="446" y1="588.2" x2="488.6" y2="588.2"/>
	<path class="st1" d="M466.3,656.3h1.9c9,0,16.4,7.3,16.4,16.4l0,0v38.1l0,0h-34.7l0,0v-38.1C449.9,663.6,457.3,656.3,466.3,656.3
		L466.3,656.3z"/>
	<line class="st2" x1="446" y1="686" x2="488.6" y2="686"/>
	<rect x="693.5" y="329.7" class="st1" width="130.8" height="16.4"/>
	<rect x="436.4" y="383.7" class="st1" width="101.1" height="16.4"/>
	<rect x="563.5" y="579.9" class="st3" width="34.7" height="44.6"/>
	<line class="st2" x1="559.5" y1="599.7" x2="602.1" y2="599.7"/>
	<line class="st2" x1="580.8" y1="626.5" x2="580.8" y2="599.7"/>
	<rect x="563.5" y="660.4" class="st1" width="34.7" height="44.6"/>
	<line class="st2" x1="559.5" y1="680.2" x2="602.1" y2="680.2"/>
	<line class="st2" x1="580.8" y1="707" x2="580.8" y2="680.2"/>
	<rect x="628.9" y="579.9" class="st4" width="34.7" height="44.6"/>
	<line class="st2" x1="624.9" y1="599.7" x2="667.5" y2="599.7"/>
	<line class="st2" x1="646.2" y1="626.5" x2="646.2" y2="599.7"/>
	<rect x="628.9" y="660.4" class="st3" width="34.7" height="44.6"/>
	<line class="st2" x1="624.9" y1="680.2" x2="667.5" y2="680.2"/>
	<line class="st2" x1="646.2" y1="707" x2="646.2" y2="680.2"/>
	<circle class="st3" cx="557.3" cy="302.4" r="25.8"/>
	<rect x="411" y="695.8" class="st3" width="437" height="29.7"/>
	<path class="st3" d="M636.4,177.6h-13.8c-108.6,0-196.7,88.1-196.7,196.7v351.2h407.2V374.3C833.1,265.7,745.1,177.6,636.4,177.6z
		 M614.7,695.8h-159V448.1h159V695.8z M614.7,418.4h-159v-43c0-89.3,69.8-163,159-167.8V418.4z M803.4,695.8h-159V448.1h159V695.8z
		 M803.4,418.4h-159V207.6c89.2,4.8,159,78.5,159,167.8V418.4z"/>
	<path class="st5" d="M734.2,669.7c0,0-68.7-164.8-71.7-207.8c-10.1-144.6,146.8-62.2,171.3-48c17.9,10.4,87.9,49.5,101.9,63.5
		c9,9,2.7,15.7,2.7,15.7s10.5,13.8-4.3,15.4c10.5,13.8-6.2,15.7-6.2,15.7s4.5,13.5-12.9,9.4c-18.8-4.4-161-65.9-161-65.9
		s31.8,100.3,41.7,132.1L734.2,669.7z"/>
	<path class="st6" d="M887.5,522.2c3.4-0.7,5.7-2.6,5-6.8c-2.2-13.8-25.1-26.8-25.1-26.8s9.2-22.2-8.9-39.3"/>
	<path class="st6" d="M927.7,523.5c-8.2-4.8-38.5-22.5-45.7-26.2"/>
	<path class="st6" d="M934.4,508.1c-10.3-6.2-35.5-21.8-45.8-27.3"/>
	<path class="st6" d="M938.2,491.2c-13-8.6-37.5-24.6-47.2-29.5"/>
	<path class="st6" d="M880.8,495.4c3.5-6.3,9.4-18.7,9.7-38.6"/>
	<line class="st7" x1="753.6" y1="470.1" x2="730.2" y2="459.4"/>
	<rect x="396.8" y="937.7" class="st5" width="166.6" height="19.3"/>
	<path class="st8" d="M590.8,1037.7L549.5,790h25.3c5.6,0,10.2-4.6,10.2-10.2s-4.6-10.2-10.2-10.2H385.6c-5.6,0-10.2,4.6-10.2,10.2
		s4.6,10.2,10.2,10.2h25l-41.3,247.6c-0.8,4.7,2.3,9.1,7,9.9c0.5,0.1,1,0.1,1.4,0.1l0,0c4,0,7.5-2.8,8.4-6.7L440.8,790h78.5
		l54.7,250.9c0.9,3.9,4.3,6.7,8.4,6.7l0,0c4.7,0,8.6-3.8,8.6-8.5C590.9,1038.6,590.9,1038.1,590.8,1037.7z"/>
	<path class="st5" d="M574.8,790c5.6,0,10.2-4.6,10.2-10.2s-4.6-10.2-10.2-10.2H385.6c-5.6,0-10.2,4.6-10.2,10.2s4.6,10.2,10.2,10.2
		h25l0,0.3h30.2l0.1-0.3h78.5l0.1,0.3h30.2l0-0.3H574.8z"/>
	<path class="st9" d="M1213.1,579.4h-0.2c-1.8,3.2-13.5,22.9-34.1,22.9s-32.3-19.7-34.1-22.9h-0.2l-32.1,144.8h132.9L1213.1,579.4z"
		/>
	<path class="st10" d="M1127.5,656.5c27.2,2.8,69.5,27.2,84.2,67.4"/>
	<path class="st10" d="M1145.1,725c3.1-32.8,29-86.9,75.7-103.8"/>
	<path class="st10" d="M1178.2,591.7c-11.5,12.1-25.9,23.3-42.3,30.9"/>
	<path class="st4" d="M1178.7,602.3c20.6,0,32.3-19.7,34.1-22.9h-68.2C1146.4,582.7,1158.1,602.3,1178.7,602.3z"/>
	<path class="st5" d="M991.5,1047.6L991.5,1047.6c-4.9,0-8.8-3.9-8.8-8.8c0-0.9,0.1-1.9,0.4-2.8l27.6-83.9c1.2-3.6,4.6-6,8.3-6h19.3
		c4.9,0,8.8,3.9,8.8,8.8c0,1.5-0.4,3-1.1,4.3l-46.9,83.9C997.6,1045.9,994.6,1047.6,991.5,1047.6z"/>
	<path class="st5" d="M1360.4,1047.6L1360.4,1047.6c4.9,0,8.8-3.9,8.8-8.8c0-0.9-0.1-1.9-0.4-2.8l-27.6-83.9c-1.2-3.6-4.6-6-8.3-6
		h-19.3c-4.9,0-8.8,3.9-8.8,8.8c0,1.5,0.4,3,1.1,4.3l46.9,83.9C1354.3,1045.9,1357.3,1047.6,1360.4,1047.6z"/>
	<rect x="950.4" y="722.6" class="st0" width="452.6" height="259.1"/>
	<path class="st1" d="M1368.9,756v192.3H984.5V756H1368.9 M1372.9,752H980.5v200.3h392.4V752z"/>
	<line class="st11" x1="1176.3" y1="751.6" x2="1176.3" y2="952.7"/>
	<circle class="st4" cx="1221.8" cy="852.2" r="11.7"/>
	<circle class="st4" cx="1131.7" cy="852.2" r="11.7"/>
	<path class="st12" d="M509.5,645.2L509.5,645.2c16.2,0,29.3,13.1,29.3,29.3l0,0v95.4l0,0h-58.5l0,0v-95.4
		C480.3,658.3,493.4,645.2,509.5,645.2z"/>
	<rect x="480.2" y="682.6" class="st9" width="58.5" height="54.5"/>
	<rect x="496.5" y="630" class="st4" width="26" height="18.4"/>
	<circle class="st4" cx="867.6" cy="439.1" r="36.2"/>
	<path class="st8" d="M839.5,461.5c2.9,1.3-21.6-56-33.9-46.9C794,423,824.8,454.8,839.5,461.5z"/>
	<path class="st8" d="M836.3,461.4c2.4,3,60.2-16,52.5-27.8C881.4,422.3,833.9,458.4,836.3,461.4z"/>
	<circle class="st4" cx="907.2" cy="396.4" r="23.3"/>
	<polygon class="st1" points="748,809.6 867.1,809.6 873.3,779.8 729.9,779.8 	"/>
	<path class="st1" d="M747,711.4c0,0,24.3-31.7,69.9-34.7l30.3-65.1c-8.1-1.3-13.9-2.1-13.9-2.1c1.2-2.9,5.3-12.5,10.2-24.3
		c-8.9-5.9-23.5-17.6-26.9-32.3c10.7-1.6,32-11.7,23.6-29.4c-10.3-21.7-37.6-5-37.6-5c-8.3-9.4-13.6-21-15.2-33.4
		c-3.3,0.3-12.8-0.7-19.5-4.3l-0.5-0.3c-3.6,7.1-6.8,14.3-9.7,21.7c-0.8,1.9-1.5,3.7-2.2,5.5c0,0-9.4-1.6-11.3,2.3
		c-2.4,4.8,4.8,11,4.8,11c-5.7,10.8-10.8,19.6-9,30.7c1.6,9.8,10.9,21.8,32.8,23.8l-11,34.7l-41,71.2
		C728.9,686.1,739.7,695.1,747,711.4z"/>
	<path class="st1" d="M1036.7,572c-12.9-16.1-59-81.9-74.4-94.2c-9.9-7.9-15.9-1-15.9-1s-14.9-8.9-14.9,6
		c-14.9-8.9-14.9,7.9-14.9,7.9s-13.9-3-7.9,13.9c6.4,18.2,78.4,149.2,78.4,149.2s-74.4-27.8-103.2-35.2c-5.3-1.4-11.8-2.7-18.3-3.9
		c-4.2,9.9-10.8,26-21.4,53c-14.4,36.5-7.4,73.1,34.3,87.6l7.4-35c0,0,77,28.9,120,27.8C1151.7,744.1,1054.5,594.3,1036.7,572z"/>
	<path class="st4" d="M787.5,485c1.6,12.4,6.9,24.1,15.2,33.5c0,0,27.3-16.7,37.6,5c8.4,17.7-12.9,27.8-23.6,29.4
		c3.4,14.7,17.9,26.4,26.9,32.3c7.3-17.6,16.5-40.1,20.8-53c6.4-19.1,9.7-48.6-19-69.9c-26.8-19.9-57.6-6.7-64.6,0.2
		c-4.1,4.1-8,8-13.2,18l0.5,0.3C774.7,484.3,784.2,485.3,787.5,485z"/>
	<path class="st8" d="M844.2,667.7c10.6-26.9,17.2-43.1,21.4-53c-6.4-1.2-12.9-2.3-18.4-3.2L817,676.6c-45.6,3-69.9,34.7-69.9,34.7
		c-7.3-16.3-18.1-25.3-26.1-30l-9.1,15.9c-9.5,17-9.1,37.8,1,54.5l17.1,28.1h143.4l5.2-24.5C836.8,740.8,829.8,704.3,844.2,667.7z"
		/>
	<path class="st6" d="M773.5,577.5c6.2,0,12.4-0.9,18.4-2.7"/>
	<path class="st6" d="M919.5,524.8c0.7-2.5,2.5-4.2,6.1-3.9c13.9,1,28.8,22.8,28.8,22.8s21.3-11,39.9,5.5"/>
	<path class="st6" d="M918.7,490.1c7.8,12.2,22.2,35,25.8,40.7"/>
	<path class="st6" d="M933,481.6c8,11.8,22,31.9,27.3,40.3"/>
	<path class="st6" d="M948.7,477c10,12.8,25.3,32.6,30.5,41"/>
	<path class="st6" d="M946.4,530.8c6-4,17.8-10.9,37.7-12.9"/>
	<line class="st6" x1="833.1" y1="607.3" x2="815.5" y2="605.2"/>
	<line class="st6" x1="770.8" y1="799.6" x2="769.9" y2="797.7"/>
	<line class="st6" x1="884.9" y1="722.2" x2="875" y2="718.3"/>
	<line class="st6" x1="1009.9" y1="660.8" x2="987.3" y2="651.9"/>
	<line class="st7" x1="873.3" y1="779.8" x2="729.9" y2="779.8"/>
	<path class="st7" d="M815.5,676.6L801,709c-4.4,9.9-14.3,16.3-25.1,16.3h-71"/>
	<path class="st6" d="M754.5,533c1.7,1.5,8.7,3.5,12.4-1.5"/>
	<line class="st13" x1="824.9" y1="529.9" x2="812.4" y2="534.8"/>
	<path class="st7" d="M778.1,510.2c-3.9,1-7.8-1.4-8.7-5.2c0-0.1-0.1-0.3-0.1-0.5"/>
	<path class="st14" d="M811.8,547.6l-4.5,18.5c-0.8,3.1,1.1,6.2,4.2,7c0.9,0.2,1.8,0.2,2.8,0l17-4c3.1-0.7,5-3.9,4.2-6.9
		c-0.2-0.9-0.6-1.7-1.2-2.4l-12.4-14.5c-2.1-2.4-5.7-2.7-8.1-0.6C812.7,545.5,812.1,546.5,811.8,547.6z"/>
	<line class="st15" x1="662.8" y1="984.1" x2="662.8" y2="984.1"/>
	<path class="st7" d="M850,978.6c-9.9-11.9-44.4-55-44.4-55"/>
	<path class="st16" d="M1118,882c-3.6-9.8-10.3-26.3-18.6-46.1l-88.4,25.8l-10.1,3.2c4.6,29.5,8.1,43.9,8.1,43.9
		s-95.2-87.3-141.8-99.2H748l-40.7,238.1h355.1C1163.7,1047.6,1134.9,927.6,1118,882z"/>
	<path class="st5" d="M1021.7,654.5c-2.4-5.7-8.4-8.8-14.4-7.6c-17.6,3.9-19,37.3-23.2,56.6c-6.9,31.8-21.8,43.7-22.8,64.5
		c-1,20,30.8,27.8,30.8,27.8c1.1,10.5,2.2,20.2,3.3,29.2l88.4-26.4C1059.5,741.3,1030.8,675.3,1021.7,654.5z"/>
	<path class="st5" d="M1000.8,864.7v0.2l10.1-3.2L1000.8,864.7z"/>
	<path class="st9" d="M1099.5,835.8c-0.3-0.6-0.5-1.2-0.8-1.8l-87.7,27.7L1099.5,835.8z"/>
	<path class="st9" d="M1098.7,834c-4.6-11.1-9.7-23.1-15-35.6l-88.4,26.4c1.9,15.4,3.8,28.7,5.5,39.8l10.2-3L1098.7,834z"/>
	<path class="st17" d="M830.7,809.2c31.7,33.2,195.6,201.8,246.6,184.8c37.2-12.4-17.6-134.7-22.8-150.8"/>
	<path class="st7" d="M1052,944.6c-11.5-10.3-32-28.7-42.9-38.4"/>
	<line class="st7" x1="988.1" y1="772.9" x2="990" y2="793.6"/>
	<line class="st7" x1="1013" y1="648.6" x2="1016.8" y2="659.2"/>
	<line class="st7" x1="1004" y1="649.6" x2="1010.1" y2="664.6"/>
	<path class="st16" d="M773.5,941.8l-0.6-0.2l20.7-132.3H748c0,0-182.5,69.6-224.1,136.1c-39.4,62.8,32.7,102.2,53.6,102.2h181.7
		L773.5,941.8z"/>
	<path class="st1" d="M965.3,1047.6c23.8,0,15.9-26.8-1-35.7s-36.7-17.9-57.5-45.6s-45.6-20.8-61.5-1c0,0-12.1-4.3-29.9-10.2
		l-13.9,92.6L965.3,1047.6z"/>
	<path class="st9" d="M775.3,942.4l-1.7-0.5l-14.4,105.8h42.3l13.9-92.6C803.8,951.2,789.8,946.7,775.3,942.4z"/>
	<line class="st7" x1="954.3" y1="1036.7" x2="969" y2="1045.6"/>
	<path class="st7" d="M675.6,918.7c41.7,7.9,59.7,13,97.4,25"/>
	<line class="st7" x1="942.5" y1="1041.7" x2="951" y2="1046.6"/>
	<line class="st7" x1="847.2" y1="964" x2="861.1" y2="969.3"/>
	<path class="st6" d="M1181.9,590.3c2.1-12.5,11.8-62.2,35.3-89"/>
	
		<ellipse transform="matrix(0.9179 -0.3968 0.3968 0.9179 -111.9175 531.3669)" class="st4" cx="1228.1" cy="536.1" rx="40.6" ry="9.1"/>
	
		<ellipse transform="matrix(0.5999 -0.8001 0.8001 0.5999 162.9674 1146.2766)" class="st4" cx="1227.5" cy="410.2" rx="22.5" ry="7.8"/>
	<path class="st8" d="M1274,481.9c-1.4-4.7-10.8-6.2-22.8-4.2c8.7-11.8,12.3-23.3,8-26.9s-15,1.9-25.2,12.4c0-12.1-3.1-21.1-8-21.7
		c-6.2-0.8-13.1,12.3-15.3,29.4c-0.6,4.9-0.8,9.8-0.5,14.7c9.5-3,19.7,2.3,22.7,11.9c0.8,2.4,1,5,0.7,7.5c4.7-0.5,9.4-1.5,13.9-2.9
		C1264,496.9,1275.8,487.9,1274,481.9z"/>
	<path class="st4" d="M1227.3,488.9c-4.7-4-11.2-5.3-17.1-3.4c0.5,8.1,2.5,14.3,5.6,16.6c2.8,2.7,9.5,3.6,17.8,2.7
		C1234.4,498.8,1232,492.8,1227.3,488.9z"/>
	<path class="st6" d="M1175.3,588.7c-0.7-14.2-4.8-84-20.3-125.2"/>
	
		<ellipse transform="matrix(0.9823 -0.1872 0.1872 0.9823 -81.2711 219.7224)" class="st4" cx="1122.7" cy="540.1" rx="49" ry="8.7"/>
	<path class="st8" d="M1166.4,404.1c-4.8-1.1-10.8,6.4-14.9,17.7c-6-13.4-14.2-22.1-19.5-20.2s-5.8,14-1.5,28
		c-10.5-5.9-19.9-7.6-22.8-3.7c-3.8,5,4.3,17.5,18.1,27.7c3.9,2.9,8.1,5.5,12.5,7.7c2.1-9.8,11.7-16,21.5-14c2.5,0.5,4.8,1.6,6.9,3
		c1.8-4.4,3.3-8.9,4.3-13.6C1174.5,420.1,1172.5,405.5,1166.4,404.1z"/>
	<path class="st4" d="M1149.6,448.2c-5.8,2.2-10.1,7.2-11.4,13.2c7.3,3.5,13.7,4.8,17.3,3.3c3.7-1.2,7.8-6.5,11.1-14.2
		C1161.7,446.9,1155.3,446.1,1149.6,448.2z"/>
	<path class="st8" d="M1103.5,478.4L1103.5,478.4c8.2,4.7,11.5,14.8,7.6,23.4c-3.9,8.5-13.7,12.7-22.6,9.5v0.1
		c22.4,10.2,43.9,11.1,48,2S1125.9,488.7,1103.5,478.4z"/>
	<path class="st3" d="M1105.3,508.9c-4.2-2.4-5.8-7.7-3.4-12c2.1-3.8,6.7-5.5,10.7-4c-0.5-6-3.9-11.4-9.2-14.4l-15,32.9
		C1094.1,513.4,1100.4,512.4,1105.3,508.9z"/>
	<path class="st4" d="M1101.6,497.5c-1.9,4.2-0.3,9.1,3.7,11.3c5-3.7,7.8-9.7,7.3-15.9C1108.3,491.4,1103.5,493.4,1101.6,497.5z"/>
</g>
</svg>
