<?xml version="1.0" encoding="utf-8"?>
<!-- Generator: Adobe Illustrator 26.5.0, SVG Export Plug-In . SVG Version: 6.00 Build 0)  -->
<svg version="1.1" id="Capa_1" xmlns="http://www.w3.org/2000/svg" xmlns:xlink="http://www.w3.org/1999/xlink" x="0px" y="0px"
	 viewBox="0 0 1250 803" style="enable-background:new 0 0 1250 803;" xml:space="preserve">
<style type="text/css">
	.st0{fill:#CA7358;}
	.st1{fill:#FFBE21;}
	.st2{fill:none;stroke:#CA7358;stroke-width:4;stroke-miterlimit:10;}
	.st3{fill:#30242A;}
	.st4{fill:#FF7235;}
	.st5{fill:#F5EBDD;}
	.st6{fill:#FFB7D5;}
	.st7{fill:#EAA58B;}
	.st8{fill:none;stroke:#F5EBDD;stroke-width:4;stroke-linecap:round;stroke-linejoin:round;}
	.st9{fill:none;stroke:#A15842;stroke-width:4;stroke-linecap:round;stroke-linejoin:round;}
	.st10{fill:none;stroke:#F5EBDD;stroke-width:4;stroke-linecap:round;stroke-miterlimit:10;}
	.st11{fill:none;}
	.st12{fill:#4756DF;}
	.st13{fill:none;stroke:#3EC1F3;stroke-width:4;stroke-linecap:round;stroke-miterlimit:10;}
	.st14{fill:none;stroke:#30242A;stroke-width:4;stroke-linecap:round;stroke-miterlimit:10;}
	.st15{fill:none;stroke:#30242A;stroke-width:4;stroke-linecap:round;stroke-linejoin:round;}
	.st16{fill:#A15842;}
	.st17{fill:none;stroke:#FFB7D5;stroke-width:4;stroke-linecap:round;stroke-linejoin:round;}
	.st18{fill:#3EC1F3;}
</style>
<g id="Layer_5">
	<path d="M207.5,802.8L207.5,802.8c-5.8,0-10.5-4.7-10.5-10.5c0-1.2,0.2-2.5,0.7-3.6l25.8-69.8h41l-47.9,79
		C214.6,800.9,211.2,802.8,207.5,802.8z"/>
	<path d="M572.5,802.8L572.5,802.8c5.8,0,10.5-4.7,10.5-10.5c0-1.2-0.2-2.5-0.7-3.6l-25.8-69.8h-41l47.9,79
		C565.4,800.9,568.8,802.8,572.5,802.8z"/>
	<rect x="167" y="511.2" class="st0" width="446" height="233"/>
	<rect x="197" y="541.2" class="st1" width="386" height="173"/>
	<line class="st2" x1="583.5" y1="628" x2="197" y2="628"/>
	<circle class="st3" cx="390" cy="586.5" r="11"/>
	<circle class="st3" cx="390" cy="670.5" r="11"/>
	<circle class="st1" cx="305.5" cy="398" r="14.5"/>
	<circle class="st1" cx="380.5" cy="398" r="14.5"/>
	<path class="st1" d="M343,383.5c-1.9,0-3.9,0.4-5.6,1.3c-2.3-7.7-10.4-12-18.1-9.7c-7.7,2.3-12,10.4-9.7,18.1
		c2.3,7.7,10.4,12,18.1,9.7c1.2-0.4,2.3-0.9,3.3-1.5c2.7,6.6,10.3,9.8,16.9,7.1c6.6-2.7,9.8-10.3,7.1-16.9
		C353.1,386.7,348.3,383.5,343,383.5z"/>
	<path class="st1" d="M368.9,383.5c-3-7.4-11.5-11-18.9-7.9c-7.4,3-11,11.5-7.9,18.9c2.2,5.4,7.5,9,13.4,9c0.5,0,1,0,1.5-0.1
		c3.8,6.1,11.8,7.9,17.9,4.1s7.9-11.8,4.1-17.9C376.8,386.1,373.1,383.9,368.9,383.5L368.9,383.5z"/>
	<circle class="st1" cx="338" cy="378.5" r="11"/>
	<circle class="st1" cx="374.5" cy="356" r="7.5"/>
	<polygon class="st4" points="283.3,397.5 303.3,511.5 317.5,511.5 301.7,397.5 	"/>
	<polygon class="st4" points="384,397.5 368.2,511.5 382.3,511.5 402.3,397.5 	"/>
	<polygon class="st5" points="359,397.5 351.5,511.5 368.2,511.5 384,397.5 	"/>
	<polygon class="st5" points="301.7,397.5 317.5,511.5 334.1,511.5 326.7,397.5 	"/>
	<polygon class="st4" points="326.7,397.5 334.1,511.5 351.5,511.5 359,397.5 	"/>
	<path class="st6" d="M520.9,433.8H708l0,0v369l0,0H440l0,0V514.7C440,470,476.2,433.8,520.9,433.8z"/>
	<path class="st6" d="M727.9,233.8h264.2c44.7,0,80.9,36.2,80.9,80.9v488.1l0,0H647l0,0V314.7C647,270,683.2,233.8,727.9,233.8
		L727.9,233.8z"/>
	<path class="st6" d="M632.9,532.4h359.2c44.7,0,80.9,36.2,80.9,80.9v189.5l0,0H552l0,0V613.2C552,568.6,588.2,532.4,632.9,532.4z"
		/>
	<line class="st2" x1="803.5" y1="622.2" x2="585.4" y2="622.2"/>
	<line class="st2" x1="552" y1="613.2" x2="552" y2="802.8"/>
	<line class="st2" x1="1073" y1="432.7" x2="903.9" y2="432.7"/>
	<rect x="169" y="0.3" class="st5" width="446" height="302"/>
	<rect x="199" y="30.3" class="st3" width="386" height="242"/>
	<path class="st3" d="M748,385.5c0,0-94,21-142,48c-49.4,27.8-54,66.7-84.8,160.3c-13.5,41-20.3,70.4-27.6,90.6l83.9,39.6
		c4-7.4,7.6-14.7,10.5-21.5c0,0,38.5-1.7,42.1-53.2c2.7-38.5,4.1-66.9,17.5-95.6l229.3-168.6L748,385.5z"/>
	<path class="st3" d="M459.2,720.4c-0.4,0.1-0.8,0.2-1.3,0.2c-29.7,4.5-42.1,10.3-47,23.8l124,57.8c2.9,1.4,6.4,0.5,8.3-2.1l0,0
		c2.2-3,1.5-7.2-1.5-9.4c0,0,0,0-0.1-0.1L460,753.5C461.9,742.5,461.7,731.3,459.2,720.4z"/>
	<path class="st7" d="M577.5,724l-83.9-39.6c-4.3,11.9-8.8,20.6-14.9,26.5c-5.1,5-11.3,8-19.5,9.5c2.5,10.9,2.7,22.1,0.8,33.1
		l81.7,37.1c-0.3-0.2-0.7-0.4-1-0.6l-3-1.4c4.9-7,12.5-18.4,20.7-31.6C564.8,746.6,571.6,735.2,577.5,724z"/>
	<line class="st8" x1="587.3" y1="703.9" x2="500" y2="663"/>
	<path class="st3" d="M924.5,425.9l-3.5-38.5h-69c0,0-116,27.8-165.3,51.4c-49.1,23.5-43.2,78.2-33.9,173.8
		c4.7,48.8,10.6,82.2,10.3,105.9h91c0.5-7.7,0.8-15.8,1-24.3c0.2-12.8,35.5-16.8,17-71.3c-12.4-36.5-23.1-60.7-23.1-92.4h80
		c53,0,95.9-42.9,95.9-95.9C924.9,431.7,924.8,428.8,924.5,425.9z"/>
	<path class="st3" d="M641.4,763c-23.1,15.7-31.3,26-30,39.8l136.9-0.2c3.1-0.1,5.6-2.8,5.4-5.9c-0.1-3-2.5-5.3-5.4-5.4H657
		C657,791.2,652,774.3,641.4,763z"/>
	<path class="st7" d="M663,718.5c-0.2,13.5-2.3,23.8-7.9,32c-3,4.3-6.8,8-11.2,10.9l-2.5,1.6c10.6,11.3,15.6,28.2,15.6,28.2h86.5
		c3.3-13.4,5.8-27,7.5-40.7c1.2-9.6,2.3-20.3,3.1-32H663z"/>
	<path class="st9" d="M750,414.5c-22.1,7.1-48.2,15.7-65,24c-38.4,18.9-43.3,55.8-39.1,117.3"/>
	<line class="st9" x1="748" y1="532.8" x2="723.2" y2="532.8"/>
	<line class="st10" x1="755" y1="695.8" x2="662" y2="695.8"/>
	<path class="st6" d="M885.9,433.8H1073l0,0v369l0,0H805l0,0V514.7C805,470,841.2,433.8,885.9,433.8z"/>
	<line class="st2" x1="803" y1="530.5" x2="803" y2="801.6"/>
	<path class="st11" d="M562,270.5c-0.4-0.3-0.9-0.6-1.4-0.8l1.4,1L562,270.5z"/>
	<path class="st12" d="M99.5,657.5c-23,0-41.8-13.8-42.5-31l0,0v176h85v-176l0,0C141.3,643.7,122.5,657.5,99.5,657.5z"/>
	<path class="st13" d="M58.6,762.7c27.9-3,61.1-22.5,54.9-68.7c-5-37-41.5-26.5-20.5,8.5c12.3,20.6,32.6,34.6,47.3,42.6"/>
	<path class="st13" d="M58.4,721.1c16.6,11.4,46.1,37.5,57.3,79.7"/>
	<path class="st13" d="M58.3,777.4c10.9,3.2,24.9,10.2,35.4,23.5"/>
	<path class="st13" d="M88.7,635.7C81.6,648,71.1,658,58.4,664.3"/>
	<path class="st3" d="M99.5,657.5c23,0,41.8-13.8,42.5-31H57C57.7,643.7,76.5,657.5,99.5,657.5z"/>
	<line class="st14" x1="75.5" y1="472" x2="98.5" y2="645"/>
	<line class="st14" x1="68.1" y1="541.7" x2="95" y2="643.5"/>
	
		<ellipse transform="matrix(0.9195 -0.3931 0.3931 0.9195 -213.3017 104.1037)" class="st3" cx="147.5" cy="572.8" rx="37.7" ry="10.4"/>
	<ellipse transform="matrix(0.3528 -0.9357 0.9357 0.3528 -523.2509 419.9906)" class="st3" cx="42" cy="588.3" rx="10" ry="45.1"/>
	
		<ellipse transform="matrix(0.7987 -0.6017 0.6017 0.7987 -304.2111 176.2331)" class="st3" cx="111.3" cy="542.8" rx="30.6" ry="7.8"/>
	<line class="st14" x1="128.5" y1="493" x2="102.5" y2="653"/>
	<path class="st6" d="M85.6,509.6c-8.3-13.7-26.1-18.1-39.8-9.9c-13.7,8.3-18.1,26.1-9.9,39.8c3.5,5.8,8.8,10.1,15.2,12.4
		C54.2,532.6,67.3,516.4,85.6,509.6z"/>
	<path class="st10" d="M72.4,527.6c-5.3-12-14.8-21.8-26.7-27.3"/>
	<path class="st10" d="M68,531.9c-9.2-9.5-21.5-15.3-34.7-16.3"/>
	<path class="st4" d="M51.2,551.9c15.1,5.3,31.7-2.6,37-17.7c2.9-8.2,2-17.2-2.5-24.6C67.3,516.4,54.2,532.6,51.2,551.9z"/>
	<path class="st6" d="M42.8,453.2c-0.3-16,12.4-29.3,28.4-29.6s29.3,12.4,29.6,28.4c0.1,6.7-2,13.3-6.2,18.6
		C81.7,455.8,61.9,449.2,42.8,453.2z"/>
	<path class="st10" d="M63.6,461.3c-2-13,0.8-26.3,7.9-37.4"/>
	<path class="st10" d="M69.7,462.6c2.6-12.9,10-24.5,20.6-32.4"/>
	<path class="st4" d="M94.6,470.5c-9.9,12.6-28.1,14.8-40.7,4.8c-6.8-5.4-10.9-13.5-11.1-22.2C61.9,449.2,81.7,455.8,94.6,470.5z"/>
	<path class="st6" d="M112.4,455.2c9.8-12.6,28.1-14.9,40.7-5.1c12.6,9.8,14.9,28.1,5.1,40.7c-4.1,5.3-10,9-16.6,10.5
		C141,481.8,129.8,464.2,112.4,455.2z"/>
	<path class="st10" d="M123.5,474.7c6.7-11.3,17.2-19.9,29.7-24"/>
	<path class="st10" d="M127.3,479.5c10.2-8.4,23.2-12.7,36.4-12.1"/>
	<path class="st4" d="M141.6,501.4c-15.6,3.5-31.1-6.4-34.6-22c-1.9-8.4,0.1-17.3,5.4-24.1C129.8,464.2,141,481.8,141.6,501.4z"/>
	<path class="st0" d="M1247.9,799.5c-0.1,0.2-0.2,0.5-0.3,0.7C1247.7,800,1247.8,799.8,1247.9,799.5z"/>
	<path class="st0" d="M1200.2,777.5l-26.2,25h67c3.5,0,5.6-0.8,6.5-2.2C1242.3,801.2,1212.4,784.5,1200.2,777.5z"/>
	<path class="st6" d="M1247.5,800.2L1247.5,800.2L1247.5,800.2z"/>
	<path class="st6" d="M1247.9,799.5c3.3-9.4-30.9-38-30.9-38l-16.8,16c12.2,7,42.1,23.7,47.3,22.8l0,0
		C1247.7,800.1,1247.8,799.8,1247.9,799.5z"/>
	<path class="st0" d="M1243,709.5c-1,5-47,13-47,13l-2.9-19.1l-1.1,0.1l7.5,57C1199.5,760.5,1246,719.5,1243,709.5z"/>
	<path class="st6" d="M1243,709.5c-2.6-8.7-42.6-6.5-49.9-6.1l2.9,19.1C1196,722.5,1242,714.5,1243,709.5z"/>
	<line class="st15" x1="1187.7" y1="708.9" x2="1189.4" y2="672.9"/>
	<line class="st15" x1="1180.7" y1="705" x2="1171.3" y2="659.1"/>
	<path class="st16" d="M1028,802.8l-46.8-62.3l21.8-23c-2-7-11-38-23-48s-23-10-29-8l-0.2,0.1c-4.5,1.7-6.8,6.6-5.1,11.1
		c0.6,1.6,1.7,3.1,3.1,4.1l11.2,9.8c0,0-25,19-25,40c0,14.6,7.9,22.1,15.7,26l-20.7,29c0,0-21,3-62-9c-12.5-3.7-26-10-38.6-15.8
		c0,13.6-6.3,24.5-15.5,32.6c21.3,8.4,48.3,13.5,69.3,13.5L1028,802.8z"/>
	<path class="st14" d="M902,781c3.5,6.7,7.8,13.6,15.3,19.7"/>
	<line class="st14" x1="1000" y1="714" x2="992" y2="720"/>
	<path class="st5" d="M829.4,756.7c-21-9.6-39.5-17.5-46.4-8.2c-11.8,16,5.4,30.7,30.8,40.7C823.1,781.2,829.4,770.3,829.4,756.7z"
		/>
	<path class="st0" d="M1211,736.5c0-4.2,5.3-9.8,9.5-11.5c-7.8-21.5-39.2-40.1-71.5-23.5c0,0-4-20-15-28c-10.3-7.5-21-8.2-29-5.2
		l-0.2,0.1c-4.7,1.9-7,7.2-5.1,11.9c0.5,1.3,1.3,2.4,2.3,3.4l14,12.8l-7,13.8c-7.1-6.5-15.5-11.4-24.6-14.5
		c-0.8,37.4-49.9,53.9-74.4,45.7c-8.6-12-15.7-18.2-17.5-19.6l-0.5,0.4c0,0-21-13.8-40,0.2c0,0-10-23-22-32.2c-10.2-7.8-30-8-35-3
		l-0.2,0.2c-4.2,4.3-4.2,11.3,0.2,15.6c0.6,0.6,1.2,1.1,1.9,1.5l14.1,8.8c0,0-36,54,12,89.5h255c38.3,0,47.3-30.7,46.4-55.3
		C1219.9,746.3,1211,743.1,1211,736.5z"/>
	<path class="st5" d="M1010,741.5c24.5,8.2,73.6-8.3,74.4-45.7c-10.1-3.6-20.8-4.7-31.4-3.5c-29,3.4-56.7,26.3-60.5,29.6
		C994.3,723.3,1001.4,729.5,1010,741.5z"/>
	<path class="st3" d="M1211,736.5c0,6.6,8.9,9.8,13.4,11c-0.2-7.2-1.3-14.3-3.4-21.2c-0.1-0.4-0.3-0.9-0.5-1.3
		C1216.3,726.7,1211,732.2,1211,736.5z"/>
	<line class="st15" x1="1203" y1="738.9" x2="1217.2" y2="736.8"/>
	<path class="st15" d="M1151.5,702c4.1,16.4,9.1,39.3,11,54"/>
	<line class="st15" x1="1107.5" y1="678" x2="1103.8" y2="683.6"/>
	<line class="st15" x1="1114.5" y1="684" x2="1110.6" y2="689.9"/>
	<line class="st15" x1="899.5" y1="696" x2="895.7" y2="701.6"/>
	<line class="st15" x1="907.5" y1="701" x2="903.4" y2="707.1"/>
	<path class="st15" d="M1107.5,709.7c-18.2,33.2-33.2,68.5-4.8,91.8"/>
	<path class="st14" d="M1020,765c-4-18-16.3-40.5-32-47c-12-5-24-4-35,2c0,0-4.8-10.2-8.6-15.8"/>
	<path class="st15" d="M1195.4,727.2c0,0,3,9.4,7.6,11.6c0,0-3.3,4.7-3.8,13.7"/>
	<path class="st0" d="M1070,692.5c0,0-8,14-21,13s-12-20,3-31c6.3-3.7,13.8-4.9,21-3.4c12.8,2.8,20.3,28.5,20.3,28.5
		S1080,693.5,1070,692.5z"/>
	<polyline class="st17" points="1183,613 1199.5,602.9 1192.1,628.5 1211.5,617 	"/>
	<polyline class="st17" points="1219,571.4 1236.3,570 1220,587.7 1239.5,586.3 	"/>
	<line class="st15" x1="1047.4" y1="695.9" x2="1047.4" y2="703.5"/>
	<line class="st15" x1="1056.6" y1="695" x2="1056.6" y2="702.6"/>
	<line class="st15" x1="952.1" y1="671.3" x2="948.5" y2="675.2"/>
	<line class="st15" x1="959.2" y1="676.5" x2="954.9" y2="681.1"/>
	<path class="st12" d="M594.3,292.9L562,270.6l-1.4-1c-8.5-4-31.8-2.9-30.6-12.2c0.2-2,2.6-3.5,6.3-4.5l-46.9-32.3
		c-3.6-2.5-8.6-1.6-11.1,2l-5,7.2c5.6,4.9,6.2,13.4,1.3,19c-4.1,4.7-11,6-16.5,3l-5.7,8.3c-2.5,3.6-1.6,8.6,2,11.1l104.9,72.3
		c3.6,2.5,8.6,1.6,11.1-2l9.1-13.2l16.8-24.3C598.8,300.4,597.9,295.4,594.3,292.9z M533.5,311.5c-11.9,0-21.5-9.6-21.5-21.5
		c0-11.9,9.6-21.5,21.5-21.5S555,278.1,555,290l0,0C555,301.9,545.4,311.5,533.5,311.5z M581,307.9l-12.5,18c-1.1,1.6-3.4,2-5,0.9
		l0,0c-1.6-1.1-2-3.4-0.9-5l12.5-18c1.1-1.6,3.4-2,5-0.9C581.7,304,582.2,306.2,581,307.9L581,307.9L581,307.9z"/>
	<circle class="st18" cx="533.5" cy="290" r="21.5"/>
	<path class="st18" d="M478,240c0-3.9-1.7-7.6-4.6-10.2l-15.2,22.1c2,1.1,4.1,1.6,6.4,1.6C472,253.5,478,247.5,478,240z"/>
	<path class="st3" d="M580.1,302.8c-1.6-1.1-3.9-0.7-5,0.9l-12.5,18c-1.1,1.6-0.7,3.9,0.9,5l0,0c1.6,1.1,3.9,0.7,5-0.9l12.5-18
		C582.1,306.2,581.7,304,580.1,302.8z"/>
	<path class="st7" d="M545,333.5c0,0-9,10-18,1c0,0-11,3-15-6c0,0-9,4-13-5c-0.3-0.6-5.2,2.2-10-4c-7-9-11-34-5-35
		c10.3-1.7,14.7,17.6,14.8,17c2.2-7.6,6.2-14,10.2-14c7,0,8,7,8,7s4.2-5.6,10-4c7,2,5,11,5,11s6.4-4.3,10,2c4,7-4,16-3,26L545,333.5
		z"/>
	<path class="st9" d="M531.4,299.9c-4.3,7.5-11,21.9-6.8,33.1"/>
	<path class="st9" d="M516.2,293c-2.7,6.4-8.4,21.9-5.9,34.4"/>
	<path class="st9" d="M497.7,299c-1.3,6.4-2.3,14.9-0.6,22.7"/>
	<path class="st7" d="M875,150.5c12-4,26-21,16-35c-13.2-18.6-36,6-36,6c-9.6-7-17-16.8-21-28c-3,1-12,2-19,0l0,0c0,0-3,8-5,22
		c-0.3,1.9-0.6,3.8-0.9,5.5c0,0-9.1-0.5-10.1,3.5c-1.2,4.9,6.7,10.2,6.7,10.2c-3.1,11.2-5.7,19.8-1.7,29.8c3.5,8.8,11,19,35,16
		l-1.4,10.5h71.6c0.4-4.2,0.9-9.2,1.4-14.6C902.4,173.7,882.1,165.6,875,150.5z"/>
	<path class="st12" d="M883,60.5c-29-13-56,7-56,7s-24.7-7.1-26,9c-1,12,14,17,14,17l0,0c7,2,16,1,19,0c4,11.2,11.4,21,21,28
		c0,0,22.8-24.6,36-6c10,14-4,31-16,35c7.1,15.1,27.4,23.2,35.6,25.9c1.8-19.1,3.9-43.2,4.4-54.9C915.9,102.4,914,74.4,883,60.5z"/>
	<path class="st7" d="M684,280.5c0,0-70-20-97-26c-16.4-3.6-39.6-4.6-50.7-1.5c-3.7,1-6.1,2.5-6.3,4.5c-1.2,9.3,22,8.2,30.6,12.2
		l33.7,23.2c3.6,2.5,4.5,7.5,2,11.1l-16.8,24.3c25.8,13.4,53.7,22.2,82.5,26.2c26.5,3.7,58.7-11.1,81.8-24.7L705.1,266
		C692.7,274.5,684,280.5,684,280.5z"/>
	<path class="st4" d="M909.2,191h-71.6l-1.6,12.5c0,0-35.2-0.7-60,15c-18.8,11.9-50.1,33.2-70.9,47.5l38.7,63.9
		c10.5-6.1,20.6-12.9,30.2-20.3l-26,76h173l-13-182C908,203.5,908.5,198.5,909.2,191z"/>
	<line class="st9" x1="834" y1="206" x2="832.5" y2="218"/>
	<line class="st9" x1="786.5" y1="268" x2="773" y2="308"/>
	<path class="st9" d="M813.8,144c1.7,1,7.8,1.8,10.4-2.9"/>
	<circle cx="826" cy="117.5" r="3"/>
	<line class="st9" x1="878" y1="127.5" x2="867" y2="134.5"/>
	<line class="st9" x1="850.9" y1="193" x2="849.2" y2="206"/>
	<line class="st9" x1="865.8" y1="193" x2="864.2" y2="206"/>
	<line class="st9" x1="880.8" y1="193" x2="879.2" y2="206"/>
	<path class="st9" d="M839.7,182.3c4.8-0.8,11.4-2.6,16.8-6.3"/>
	<path class="st7" d="M914.2,332.5l1.8,37c0,0-84.3,23.6-113.1,45.2c-13,9.8-29,28.1-34.9,35.8s-30.3,43-20,44s26.1-21.2,26.1-21.2
		s-10.1,27.2-7.1,36.2s12.3,2.8,12.3,2.8c8.7,10.2,16.4-1.1,16.4-1.1c15.3,11.3,30.8-44.1,30.8-44.1c8.4-4.1,16-9.9,22.1-16.9
		c0,0,85.6,3.4,119.3-24.7c16.9-14.1,25.2-51.5,25.5-93H914.2z"/>
	<path class="st4" d="M980,237.5c-7.4-22.6-32-34-47-34h-25l6.2,129h79.3C993.8,300.2,989.2,265.5,980,237.5z"/>
	<line class="st9" x1="916.4" y1="331.6" x2="913.5" y2="270"/>
	<line class="st9" x1="917.6" y1="367" x2="932.5" y2="363"/>
	<path class="st9" d="M771.8,475.1c3.1-8.4,7.9-20.8,11.7-29.1"/>
	<path class="st9" d="M797.5,453c-10.7,23.1-17,49-19,58.4"/>
	<path class="st9" d="M812.5,461c-6.9,15.8-13.2,36.8-16.6,49.1"/>
</g>
</svg>
