<?xml version="1.0" encoding="utf-8"?>
<!-- Generator: Adobe Illustrator 26.5.0, SVG Export Plug-In . SVG Version: 6.00 Build 0)  -->
<svg version="1.1" id="Capa_1" xmlns="http://www.w3.org/2000/svg" xmlns:xlink="http://www.w3.org/1999/xlink" x="0px" y="0px"
	 viewBox="0 0 1034.2 870.1" style="enable-background:new 0 0 1034.2 870.1;" xml:space="preserve">
<style type="text/css">
	.st0{fill:#FFB7D5;}
	.st1{fill:#CA7358;}
	.st2{fill:none;stroke:#FFB7D5;stroke-width:4;stroke-linecap:round;stroke-linejoin:round;}
	.st3{fill:#F5EBDD;}
	.st4{fill:#30242A;}
	.st5{fill:#A15842;}
	.st6{fill:none;stroke:#30242A;stroke-width:4;stroke-linecap:round;stroke-miterlimit:10;}
	.st7{fill:none;stroke:#30242A;stroke-width:4;stroke-linecap:round;stroke-linejoin:round;}
	.st8{fill:#FFBE21;}
	.st9{fill:#3EC1F3;}
	.st10{fill:none;stroke:#F5EBDD;stroke-width:4;stroke-linecap:round;stroke-miterlimit:10;}
	.st11{fill:none;stroke:#CA7358;stroke-width:4;stroke-miterlimit:10;}
	.st12{fill:#4756DF;}
	.st13{fill:none;stroke:#A15842;stroke-width:4;stroke-linecap:round;stroke-miterlimit:10;}
	.st14{fill:#F4E6D8;}
	.st15{fill:none;}
	.st16{fill:#4856DF;}
	.st17{fill:none;stroke:#3EC1F3;stroke-width:4;stroke-linecap:round;stroke-linejoin:round;}
</style>
<g id="Layer_11">
	<path class="st0" d="M250.7,29.5h19.2c90.7,0,164.3,73.6,164.3,164.3V518l0,0H86.4l0,0V193.8C86.4,103,160,29.5,250.7,29.5z"/>
	<path class="st1" d="M323.6,324.9V523H169V324.9H323.6 M327.6,320.9H165V527h162.5L327.6,320.9L327.6,320.9z"/>
	<rect x="165" y="320.9" class="st1" width="162.5" height="42.6"/>
	<path class="st1" d="M164.3,217.9V524H71.2V217.9H164.3 M168.3,213.9H67.2V528h101.1V213.9z"/>
	<path class="st1" d="M451.1,156v367H328.3V156H451.1 M455.1,152H324.3v375h130.8V152z"/>
	<path class="st1" d="M377.1,202h1.9c9,0,16.4,7.3,16.4,16.4l0,0v38.1l0,0h-34.7l0,0v-38.1C360.7,209.4,368.1,202,377.1,202z"/>
	<line class="st2" x1="356.8" y1="231.8" x2="399.4" y2="231.8"/>
	<path class="st3" d="M377.1,299.8h1.9c9,0,16.4,7.3,16.4,16.4l0,0v38.1l0,0h-34.7l0,0v-38.1C360.7,307.1,368.1,299.8,377.1,299.8
		L377.1,299.8L377.1,299.8z"/>
	<line class="st2" x1="356.8" y1="329.5" x2="399.4" y2="329.5"/>
	<path class="st3" d="M377.1,397.6h1.9c9,0,16.4,7.3,16.4,16.4l0,0v38.1l0,0h-34.7l0,0V414C360.7,404.9,368.1,397.6,377.1,397.6
		L377.1,397.6z"/>
	<line class="st2" x1="356.8" y1="427.3" x2="399.4" y2="427.3"/>
	<path class="st4" d="M377.1,495.3h1.9c9,0,16.4,7.3,16.4,16.4l0,0v35l0,0h-34.7l0,0v-35C360.7,502.6,368.1,495.3,377.1,495.3
		L377.1,495.3z"/>
	<path class="st3" d="M97.1,283H99c9,0,16.4,7.3,16.4,16.4l0,0v38.1l0,0H80.7l0,0v-38.1C80.7,290.4,88.1,283,97.1,283L97.1,283
		L97.1,283z"/>
	<line class="st2" x1="76.8" y1="312.8" x2="119.4" y2="312.8"/>
	<path class="st3" d="M97.1,380.8H99c9,0,16.4,7.3,16.4,16.4l0,0v38.1l0,0H80.7l0,0v-38.1C80.7,388.1,88.1,380.8,97.1,380.8
		L97.1,380.8z"/>
	<line class="st2" x1="76.8" y1="410.5" x2="119.4" y2="410.5"/>
	<path class="st1" d="M97.1,478.6H99c9,0,16.4,7.3,16.4,16.4l0,0v38.1l0,0H80.7l0,0V495C80.7,485.9,88.1,478.6,97.1,478.6
		L97.1,478.6z"/>
	<line class="st2" x1="76.8" y1="508.3" x2="119.4" y2="508.3"/>
	<rect x="324.3" y="152" class="st1" width="130.8" height="16.4"/>
	<rect x="67.2" y="206" class="st1" width="101.1" height="16.4"/>
	<rect x="194.3" y="402.2" class="st3" width="34.7" height="44.6"/>
	<line class="st2" x1="190.3" y1="422" x2="232.9" y2="422"/>
	<line class="st2" x1="211.6" y1="448.8" x2="211.6" y2="422"/>
	<rect x="194.3" y="482.7" class="st1" width="34.7" height="44.6"/>
	<line class="st2" x1="190.3" y1="502.5" x2="232.9" y2="502.5"/>
	<line class="st2" x1="211.6" y1="529.3" x2="211.6" y2="502.5"/>
	<rect x="259.7" y="402.2" class="st4" width="34.7" height="44.6"/>
	<line class="st2" x1="255.7" y1="422" x2="298.3" y2="422"/>
	<line class="st2" x1="277" y1="448.8" x2="277" y2="422"/>
	<rect x="259.7" y="482.7" class="st3" width="34.7" height="44.6"/>
	<line class="st2" x1="255.7" y1="502.5" x2="298.3" y2="502.5"/>
	<line class="st2" x1="277" y1="529.3" x2="277" y2="502.5"/>
	<circle class="st3" cx="188.1" cy="124.7" r="25.8"/>
	<rect x="41.8" y="518.1" class="st3" width="437" height="29.7"/>
	<path class="st3" d="M267.2-0.1h-13.8C144.8-0.1,56.7,88,56.7,196.6v351.2h407.2V196.6C463.9,88,375.9-0.1,267.2-0.1z M245.5,518.1
		h-159V270.4h159V518.1z M245.5,240.7h-159v-43c0-89.3,69.8-163,159-167.8V240.7z M434.2,518.1h-159V270.4h159V518.1z M434.2,240.7
		h-159V29.9c89.2,4.8,159,78.5,159,167.8V240.7z"/>
	<path class="st5" d="M365,492c0,0-68.7-164.8-71.7-207.8c-10.1-144.6,146.8-62.2,171.3-48c17.9,10.4,87.9,49.5,101.9,63.5
		c9,9,2.7,15.7,2.7,15.7s10.5,13.8-4.3,15.4c10.5,13.8-6.2,15.7-6.2,15.7s4.5,13.5-12.9,9.4c-18.8-4.4-161-65.9-161-65.9
		s31.8,100.3,41.7,132.1L365,492z"/>
	<path class="st6" d="M518.3,344.5c3.4-0.7,5.7-2.6,5-6.8c-2.2-13.8-25.1-26.8-25.1-26.8s9.2-22.2-8.9-39.3"/>
	<path class="st6" d="M558.5,345.8c-8.2-4.8-38.5-22.5-45.7-26.2"/>
	<path class="st6" d="M565.2,330.4c-10.3-6.2-35.5-21.8-45.8-27.3"/>
	<path class="st6" d="M569,313.5c-13-8.6-37.5-24.6-47.2-29.5"/>
	<path class="st6" d="M511.6,317.7c3.5-6.3,9.4-18.7,9.7-38.6"/>
	<line class="st7" x1="384.4" y1="292.4" x2="361" y2="281.7"/>
	<rect x="27.6" y="760" class="st5" width="166.6" height="19.3"/>
	<path class="st8" d="M221.6,860l-41.3-247.7h25.3c5.6,0,10.2-4.6,10.2-10.2s-4.6-10.2-10.2-10.2H16.4c-5.6,0-10.2,4.6-10.2,10.2
		s4.6,10.2,10.2,10.2h25L0.1,859.9c-0.8,4.7,2.3,9.1,7,9.9c0.5,0.1,1,0.1,1.4,0.1l0,0c4,0,7.5-2.8,8.4-6.7l54.7-250.9h78.5
		l54.7,250.9c0.9,3.9,4.3,6.7,8.4,6.7l0,0c4.7,0,8.6-3.8,8.6-8.5C221.7,860.9,221.7,860.4,221.6,860z"/>
	<path class="st5" d="M205.6,612.3c5.6,0,10.2-4.6,10.2-10.2s-4.6-10.2-10.2-10.2H16.4c-5.6,0-10.2,4.6-10.2,10.2
		s4.6,10.2,10.2,10.2h25v0.3h30.2l0.1-0.3h78.5l0.1,0.3h30.2v-0.3H205.6z"/>
	<path class="st9" d="M843.9,401.7h-0.2c-1.8,3.2-13.5,22.9-34.1,22.9s-32.3-19.7-34.1-22.9h-0.2l-32.1,144.8h132.9L843.9,401.7z"/>
	<path class="st10" d="M758.3,478.8c27.2,2.8,69.5,27.2,84.2,67.4"/>
	<path class="st10" d="M775.9,547.3c3.1-32.8,29-86.9,75.7-103.8"/>
	<path class="st10" d="M809,414c-11.5,12.1-25.9,23.3-42.3,30.9"/>
	<path class="st4" d="M809.5,424.6c20.6,0,32.3-19.7,34.1-22.9h-68.2C777.2,405,788.9,424.6,809.5,424.6z"/>
	<path class="st5" d="M622.3,869.9L622.3,869.9c-4.9,0-8.8-3.9-8.8-8.8c0-0.9,0.1-1.9,0.4-2.8l27.6-83.9c1.2-3.6,4.6-6,8.3-6h19.3
		c4.9,0,8.8,3.9,8.8,8.8c0,1.5-0.4,3-1.1,4.3l-46.9,83.9C628.4,868.2,625.4,869.9,622.3,869.9z"/>
	<path class="st5" d="M991.2,869.9L991.2,869.9c4.9,0,8.8-3.9,8.8-8.8c0-0.9-0.1-1.9-0.4-2.8L972,774.4c-1.2-3.6-4.6-6-8.3-6h-19.3
		c-4.9,0-8.8,3.9-8.8,8.8c0,1.5,0.4,3,1.1,4.3l46.9,83.9C985.1,868.2,988.1,869.9,991.2,869.9z"/>
	<rect x="581.2" y="544.9" class="st0" width="452.6" height="259.1"/>
	<path class="st1" d="M999.7,578.3v192.3H615.3V578.3H999.7 M1003.7,574.3H611.3v200.3h392.4V574.3z"/>
	<line class="st11" x1="807.1" y1="573.9" x2="807.1" y2="775"/>
	<circle class="st4" cx="852.6" cy="674.5" r="11.7"/>
	<circle class="st4" cx="762.5" cy="674.5" r="11.7"/>
	<path class="st12" d="M140.3,467.5L140.3,467.5c16.2,0,29.3,13.1,29.3,29.3l0,0v95.4l0,0h-58.5l0,0v-95.4
		C111.1,480.6,124.2,467.5,140.3,467.5z"/>
	<rect x="111" y="504.9" class="st9" width="58.5" height="54.5"/>
	<rect x="127.3" y="452.3" class="st4" width="26" height="18.4"/>
	<circle class="st4" cx="498.4" cy="261.4" r="36.2"/>
	<path class="st8" d="M470.3,283.8c2.9,1.3-21.6-56-33.9-46.9C424.8,245.3,455.6,277.1,470.3,283.8z"/>
	<path class="st8" d="M467.1,283.7c2.4,3,60.2-16,52.5-27.8C512.2,244.6,464.7,280.7,467.1,283.7z"/>
	<circle class="st4" cx="538" cy="218.7" r="23.3"/>
	<polygon class="st1" points="378.8,631.9 497.9,631.9 504.1,602.1 360.7,602.1 	"/>
	<path class="st1" d="M377.8,533.7c0,0,24.3-31.7,69.9-34.7l30.3-65.1c-8.1-1.3-13.9-2.1-13.9-2.1c1.2-2.9,5.3-12.5,10.2-24.3
		c-8.9-5.9-23.5-17.6-26.9-32.3c10.7-1.6,32-11.7,23.6-29.4c-10.3-21.7-37.6-5-37.6-5c-8.3-9.4-13.6-21-15.2-33.4
		c-3.3,0.3-12.8-0.7-19.5-4.3l-0.5-0.3c-3.6,7.1-6.8,14.3-9.7,21.7c-0.8,1.9-1.5,3.7-2.2,5.5c0,0-9.4-1.6-11.3,2.3
		c-2.4,4.8,4.8,11,4.8,11c-5.7,10.8-10.8,19.6-9,30.7c1.6,9.8,10.9,21.8,32.8,23.8l-11,34.7l-41,71.2
		C359.7,508.4,370.5,517.4,377.8,533.7z"/>
	<path class="st1" d="M667.5,394.3c-12.9-16.1-59-81.9-74.4-94.2c-9.9-7.9-15.9-1-15.9-1s-14.9-8.9-14.9,6
		c-14.9-8.9-14.9,7.9-14.9,7.9s-13.9-3-7.9,13.9c6.4,18.2,78.4,149.2,78.4,149.2s-74.4-27.8-103.2-35.2c-5.3-1.4-11.8-2.7-18.3-3.9
		c-4.2,9.9-10.8,26-21.4,53c-14.4,36.5-7.4,73.1,34.3,87.6l7.4-35c0,0,77,28.9,120,27.8C782.5,566.4,685.3,416.6,667.5,394.3z"/>
	<path class="st4" d="M418.3,307.3c1.6,12.4,6.9,24.1,15.2,33.5c0,0,27.3-16.7,37.6,5c8.4,17.7-12.9,27.8-23.6,29.4
		c3.4,14.7,17.9,26.4,26.9,32.3c7.3-17.6,16.5-40.1,20.8-53c6.4-19.1,9.7-48.6-19-69.9c-26.8-19.9-57.6-6.7-64.6,0.2
		c-4.1,4.1-8,8-13.2,18l0.5,0.3C405.5,306.6,415,307.6,418.3,307.3z"/>
	<path class="st8" d="M475,490c10.6-26.9,17.2-43.1,21.4-53c-6.4-1.2-12.9-2.3-18.4-3.2l-30.2,65.1c-45.6,3-69.9,34.7-69.9,34.7
		c-7.3-16.3-18.1-25.3-26.1-30l-9.1,15.9c-9.5,17-9.1,37.8,1,54.5l17.1,28.1h143.4l5.2-24.5C467.6,563.1,460.6,526.6,475,490z"/>
	<path class="st6" d="M404.3,399.8c6.2,0,12.4-0.9,18.4-2.7"/>
	<path class="st6" d="M550.3,347.1c0.7-2.5,2.5-4.2,6.1-3.9c13.9,1,28.8,22.8,28.8,22.8s21.3-11,39.9,5.5"/>
	<path class="st6" d="M549.5,312.4c7.8,12.2,22.2,35,25.8,40.7"/>
	<path class="st6" d="M563.8,303.9c8,11.8,22,31.9,27.3,40.3"/>
	<path class="st6" d="M579.5,299.3c10,12.8,25.3,32.6,30.5,41"/>
	<path class="st6" d="M577.2,353.1c6-4,17.8-10.9,37.7-12.9"/>
	<line class="st6" x1="463.9" y1="429.6" x2="446.3" y2="427.5"/>
	<line class="st6" x1="401.6" y1="621.9" x2="400.7" y2="620"/>
	<line class="st6" x1="515.7" y1="544.5" x2="505.8" y2="540.6"/>
	<line class="st6" x1="640.7" y1="483.1" x2="618.1" y2="474.2"/>
	<line class="st7" x1="504.1" y1="602.1" x2="360.7" y2="602.1"/>
	<path class="st7" d="M446.3,498.9l-14.5,32.4c-4.4,9.9-14.3,16.3-25.1,16.3h-71"/>
	<path class="st6" d="M385.3,355.3c1.7,1.5,8.7,3.5,12.4-1.5"/>
	<line class="st13" x1="455.7" y1="352.2" x2="443.2" y2="357.1"/>
	<path class="st7" d="M408.9,332.5c-3.9,1-7.8-1.4-8.7-5.2c0-0.1-0.1-0.3-0.1-0.5"/>
	<path class="st14" d="M442.6,369.9l-4.5,18.5c-0.8,3.1,1.1,6.2,4.2,7c0.9,0.2,1.8,0.2,2.8,0l17-4c3.1-0.7,5-3.9,4.2-6.9
		c-0.2-0.9-0.6-1.7-1.2-2.4l-12.4-14.5c-2.1-2.4-5.7-2.7-8.1-0.6C443.5,367.8,442.9,368.8,442.6,369.9z"/>
	<line class="st15" x1="293.6" y1="806.4" x2="293.6" y2="806.4"/>
	<path class="st7" d="M480.8,800.9c-9.9-11.9-44.4-55-44.4-55"/>
	<path class="st16" d="M748.8,704.3c-3.6-9.8-10.3-26.3-18.6-46.1L641.8,684l-10.1,3.2c4.6,29.5,8.1,43.9,8.1,43.9
		s-95.2-87.3-141.8-99.2H378.8L338.1,870h355.1C794.5,869.9,765.7,749.9,748.8,704.3z"/>
	<path class="st5" d="M652.5,476.8c-2.4-5.7-8.4-8.8-14.4-7.6c-17.6,3.9-19,37.3-23.2,56.6c-6.9,31.8-21.8,43.7-22.8,64.5
		c-1,20,30.8,27.8,30.8,27.8c1.1,10.5,2.2,20.2,3.3,29.2l88.4-26.4C690.3,563.6,661.6,497.6,652.5,476.8z"/>
	<path class="st5" d="M631.6,687v0.2l10.1-3.2L631.6,687z"/>
	<path class="st9" d="M730.3,658.1c-0.3-0.6-0.5-1.2-0.8-1.8L641.8,684L730.3,658.1z"/>
	<path class="st9" d="M729.5,656.3c-4.6-11.1-9.7-23.1-15-35.6l-88.4,26.4c1.9,15.4,3.8,28.7,5.5,39.8l10.2-3L729.5,656.3z"/>
	<path class="st17" d="M461.5,631.5c31.7,33.2,195.6,201.8,246.6,184.8c37.2-12.4-17.6-134.7-22.8-150.8"/>
	<path class="st7" d="M682.8,766.9c-11.5-10.3-32-28.7-42.9-38.4"/>
	<line class="st7" x1="618.9" y1="595.2" x2="620.8" y2="615.9"/>
	<line class="st7" x1="643.8" y1="470.9" x2="647.6" y2="481.5"/>
	<line class="st7" x1="634.8" y1="471.9" x2="640.9" y2="486.9"/>
	<path class="st16" d="M404.3,764.1l-0.6-0.2l20.7-132.3h-45.6c0,0-182.5,69.6-224.1,136.1c-39.4,62.8,32.7,102.2,53.6,102.2H390
		L404.3,764.1z"/>
	<path class="st1" d="M596.1,869.9c23.8,0,15.9-26.8-1-35.7s-36.7-17.9-57.5-45.6s-45.6-20.8-61.5-1c0,0-12.1-4.3-29.9-10.2
		L432.3,870L596.1,869.9z"/>
	<path class="st9" d="M406.1,764.7l-1.7-0.5L390,870h42.3l13.9-92.6C434.6,773.5,420.6,769,406.1,764.7z"/>
	<line class="st7" x1="585.1" y1="859" x2="599.8" y2="867.9"/>
	<path class="st7" d="M306.4,741c41.7,7.9,59.7,13,97.4,25"/>
	<line class="st7" x1="573.3" y1="864" x2="581.8" y2="868.9"/>
	<line class="st7" x1="478" y1="786.3" x2="491.9" y2="791.6"/>
	<path class="st6" d="M812.7,412.6c2.1-12.5,11.8-62.2,35.3-89"/>
	
		<ellipse transform="matrix(0.9179 -0.3968 0.3968 0.9179 -71.7189 370.235)" class="st4" cx="858.9" cy="358.4" rx="40.6" ry="9.1"/>
	
		<ellipse transform="matrix(0.5999 -0.8001 0.8001 0.5999 157.3938 779.7938)" class="st4" cx="858.4" cy="232.5" rx="22.5" ry="7.8"/>
	<path class="st8" d="M904.8,304.2c-1.4-4.7-10.8-6.2-22.8-4.2c8.7-11.8,12.3-23.3,8-26.9s-15,1.9-25.2,12.4c0-12.1-3.1-21.1-8-21.7
		c-6.2-0.8-13.1,12.3-15.3,29.4c-0.6,4.9-0.8,9.8-0.5,14.7c9.5-3,19.7,2.3,22.7,11.9c0.8,2.4,1,5,0.7,7.5c4.7-0.5,9.4-1.5,13.9-2.9
		C894.8,319.2,906.6,310.2,904.8,304.2z"/>
	<path class="st4" d="M858.1,311.2c-4.7-4-11.2-5.3-17.1-3.4c0.5,8.1,2.5,14.3,5.6,16.6c2.8,2.7,9.5,3.6,17.8,2.7
		C865.2,321.1,862.8,315.1,858.1,311.2z"/>
	<path class="st6" d="M806.1,411c-0.7-14.2-4.8-84-20.3-125.2"/>
	
		<ellipse transform="matrix(0.9823 -0.1872 0.1872 0.9823 -54.5205 147.4597)" class="st4" cx="753.5" cy="362.4" rx="49" ry="8.7"/>
	<path class="st8" d="M797.2,226.4c-4.8-1.1-10.8,6.4-14.9,17.7c-6-13.4-14.2-22.1-19.5-20.2s-5.8,14-1.5,28
		c-10.5-5.9-19.9-7.6-22.8-3.7c-3.8,5,4.3,17.5,18.1,27.7c3.9,2.9,8.1,5.5,12.5,7.7c2.1-9.8,11.7-16,21.5-14c2.5,0.5,4.8,1.6,6.9,3
		c1.8-4.4,3.3-8.9,4.3-13.6C805.3,242.4,803.3,227.8,797.2,226.4z"/>
	<path class="st4" d="M780.4,270.5c-5.8,2.2-10.1,7.2-11.4,13.2c7.3,3.5,13.7,4.8,17.3,3.3c3.7-1.2,7.8-6.5,11.1-14.2
		C792.5,269.2,786.1,268.4,780.4,270.5z"/>
	<path class="st8" d="M734.3,300.7L734.3,300.7c8.2,4.7,11.5,14.8,7.6,23.4c-3.9,8.5-13.7,12.7-22.6,9.5v0.1
		c22.4,10.2,43.9,11.1,48,2S756.7,311,734.3,300.7z"/>
	<path class="st3" d="M736.1,331.2c-4.2-2.4-5.8-7.7-3.4-12c2.1-3.8,6.7-5.5,10.7-4c-0.5-6-3.9-11.4-9.2-14.4l-15,32.9
		C724.9,335.7,731.2,334.7,736.1,331.2z"/>
	<path class="st4" d="M732.4,319.8c-1.9,4.2-0.3,9.1,3.7,11.3c5-3.7,7.8-9.7,7.3-15.9C739.1,313.7,734.3,315.7,732.4,319.8z"/>
</g>
</svg>
