<?xml version="1.0" encoding="utf-8"?>
<!-- Generator: Adobe Illustrator 26.5.0, SVG Export Plug-In . SVG Version: 6.00 Build 0)  -->
<svg version="1.1" id="Capa_1" xmlns="http://www.w3.org/2000/svg" xmlns:xlink="http://www.w3.org/1999/xlink" x="0px" y="0px"
	 viewBox="0 0 1084 803" style="enable-background:new 0 0 1084 803;" xml:space="preserve">
<style type="text/css">
	.st0{fill:#CA7358;}
	.st1{fill:#FFBE21;}
	.st2{fill:none;stroke:#CA7358;stroke-width:4;stroke-miterlimit:10;}
	.st3{fill:#30242A;}
	.st4{fill:#FF7235;}
	.st5{fill:#F5EBDD;}
	.st6{fill:#4C0FFF;}
	.st7{fill:#FFBDAB;}
	.st8{fill:none;stroke:#F5EBDD;stroke-width:4;stroke-linecap:round;stroke-linejoin:round;}
	.st9{fill:none;stroke:#4C0FFF;stroke-width:4;stroke-linecap:round;stroke-linejoin:round;}
	.st10{fill:none;stroke:#F5EBDD;stroke-width:4;stroke-linecap:round;stroke-miterlimit:10;}
	.st11{fill:none;}
	.st12{fill:#FFB7D5;}
	.st13{fill:none;stroke:#30242A;stroke-width:4;stroke-linecap:round;stroke-linejoin:round;}
	.st14{fill:#A15842;}
	.st15{fill:none;stroke:#30242A;stroke-width:4;stroke-linecap:round;stroke-miterlimit:10;}
	.st16{fill:none;stroke:#FFB7D5;stroke-width:4;stroke-linecap:round;stroke-linejoin:round;}
	.st17{fill:#1EDFCE;}
	.st18{fill:#EAA58B;}
	.st19{fill:none;stroke:#A15842;stroke-width:4;stroke-linecap:round;stroke-linejoin:round;}
	.st20{fill:#1EDFCE;stroke:#4C0FFF;stroke-width:4;stroke-linecap:round;stroke-linejoin:round;}
</style>
<g id="Layer_5">
	<path d="M41.5,802.8L41.5,802.8c-5.8,0-10.5-4.7-10.5-10.5c0-1.2,0.2-2.5,0.7-3.6l25.8-69.8h41l-47.9,79
		C48.6,800.9,45.2,802.8,41.5,802.8z"/>
	<path d="M406.5,802.8L406.5,802.8c5.8,0,10.5-4.7,10.5-10.5c0-1.2-0.2-2.5-0.7-3.6l-25.8-69.8h-41l47.9,79
		C399.4,800.9,402.8,802.8,406.5,802.8z"/>
	<rect x="1" y="511.2" class="st0" width="446" height="233"/>
	<rect x="31" y="541.2" class="st1" width="386" height="173"/>
	<line class="st2" x1="417.5" y1="628" x2="31" y2="628"/>
	<circle class="st3" cx="224" cy="586.5" r="11"/>
	<circle class="st3" cx="224" cy="670.5" r="11"/>
	<circle class="st1" cx="139.5" cy="398" r="14.5"/>
	<circle class="st1" cx="214.5" cy="398" r="14.5"/>
	<path class="st1" d="M177,383.5c-1.9,0-3.9,0.4-5.6,1.3c-2.3-7.7-10.4-12-18.1-9.7s-12,10.4-9.7,18.1s10.4,12,18.1,9.7
		c1.2-0.4,2.3-0.9,3.3-1.5c2.7,6.6,10.3,9.8,16.9,7.1c6.6-2.7,9.8-10.3,7.1-16.9C187.1,386.7,182.3,383.5,177,383.5z"/>
	<path class="st1" d="M202.9,383.5c-3-7.4-11.5-11-18.9-7.9c-7.4,3-11,11.5-7.9,18.9c2.2,5.4,7.5,9,13.4,9c0.5,0,1,0,1.5-0.1
		c3.8,6.1,11.8,7.9,17.9,4.1s7.9-11.8,4.1-17.9C210.8,386.1,207.1,383.9,202.9,383.5L202.9,383.5z"/>
	<circle class="st1" cx="172" cy="378.5" r="11"/>
	<circle class="st1" cx="208.5" cy="356" r="7.5"/>
	<polygon class="st4" points="117.3,397.5 137.3,511.5 151.5,511.5 135.7,397.5 	"/>
	<polygon class="st4" points="218,397.5 202.2,511.5 216.3,511.5 236.3,397.5 	"/>
	<polygon class="st5" points="193,397.5 185.5,511.5 202.2,511.5 218,397.5 	"/>
	<polygon class="st5" points="135.7,397.5 151.5,511.5 168.1,511.5 160.7,397.5 	"/>
	<polygon class="st4" points="160.7,397.5 168.1,511.5 185.5,511.5 193,397.5 	"/>
	<path class="st6" d="M354.9,433.8H542l0,0v369l0,0H274l0,0V514.7C274,470,310.2,433.8,354.9,433.8z"/>
	<path class="st6" d="M561.9,233.8h264.2c44.7,0,80.9,36.2,80.9,80.9v488.1l0,0H481l0,0V314.7C481,270,517.2,233.8,561.9,233.8
		L561.9,233.8z"/>
	<path class="st6" d="M466.9,532.4h359.2c44.7,0,80.9,36.2,80.9,80.9v189.5l0,0H386l0,0V613.2C386,568.6,422.2,532.4,466.9,532.4z"
		/>
	<line class="st2" x1="637.5" y1="622.2" x2="419.4" y2="622.2"/>
	<line class="st2" x1="386" y1="613.2" x2="386" y2="802.8"/>
	<line class="st2" x1="907" y1="432.7" x2="737.9" y2="432.7"/>
	<rect x="3" y="0.3" class="st6" width="446" height="302"/>
	<rect x="33" y="30.3" class="st6" width="386" height="242"/>
	<path class="st3" d="M582,385.5c0,0-94,21-142,48c-49.4,27.8-54,66.7-84.8,160.3c-13.5,41-20.3,70.4-27.6,90.6l83.9,39.6
		c4-7.4,7.6-14.7,10.5-21.5c0,0,38.5-1.7,42.1-53.2c2.7-38.5,4.1-66.9,17.5-95.6l229.3-168.6L582,385.5z"/>
	<path class="st3" d="M293.2,720.4c-0.4,0.1-0.8,0.2-1.3,0.2c-29.7,4.5-42.1,10.3-47,23.8l124,57.8c2.9,1.4,6.4,0.5,8.3-2.1l0,0
		c2.2-3,1.5-7.2-1.5-9.4c0,0,0,0-0.1-0.1L294,753.5C295.9,742.5,295.7,731.3,293.2,720.4z"/>
	<path class="st7" d="M411.5,724l-83.9-39.6c-4.3,11.9-8.8,20.6-14.9,26.5c-5.1,5-11.3,8-19.5,9.5c2.5,10.9,2.7,22.1,0.8,33.1
		l81.7,37.1c-0.3-0.2-0.7-0.4-1-0.6l-3-1.4c4.9-7,12.5-18.4,20.7-31.6C398.8,746.6,405.6,735.2,411.5,724z"/>
	<line class="st8" x1="421.3" y1="703.9" x2="334" y2="663"/>
	<path class="st3" d="M758.5,425.9l-3.5-38.5h-69c0,0-116,27.8-165.3,51.4c-49.1,23.5-43.2,78.2-33.9,173.8
		c4.7,48.8,10.6,82.2,10.3,105.9h91c0.5-7.7,0.8-15.8,1-24.3c0.2-12.8,35.5-16.8,17-71.3c-12.4-36.5-23.1-60.7-23.1-92.4h80
		c53,0,95.9-42.9,95.9-95.9C758.9,431.7,758.8,428.8,758.5,425.9z"/>
	<path class="st3" d="M475.4,763c-23.1,15.7-31.3,26-30,39.8l136.9-0.2c3.1-0.1,5.6-2.8,5.4-5.9c-0.1-3-2.5-5.3-5.4-5.4H491
		C491,791.2,486,774.3,475.4,763z"/>
	<path class="st7" d="M497,718.5c-0.2,13.5-2.3,23.8-7.9,32c-3,4.3-6.8,8-11.2,10.9l-2.5,1.6c10.6,11.3,15.6,28.2,15.6,28.2h86.5
		c3.3-13.4,5.8-27,7.5-40.7c1.2-9.6,2.3-20.3,3.1-32H497z"/>
	<path class="st9" d="M584,414.5c-22.1,7.1-48.2,15.7-65,24c-38.4,18.9-43.3,55.8-39.1,117.3"/>
	<line class="st9" x1="582" y1="532.8" x2="557.2" y2="532.8"/>
	<line class="st10" x1="589" y1="695.8" x2="496" y2="695.8"/>
	<path class="st6" d="M719.9,433.8H907l0,0v369l0,0H639l0,0V514.7C639,470,675.2,433.8,719.9,433.8z"/>
	<line class="st2" x1="637" y1="530.5" x2="637" y2="801.6"/>
	<path class="st11" d="M396,270.5c-0.4-0.3-0.9-0.6-1.4-0.8l1.4,1V270.5z"/>
	<path class="st0" d="M1081.9,799.5c-0.1,0.2-0.2,0.5-0.3,0.7C1081.7,800,1081.8,799.8,1081.9,799.5z"/>
	<path class="st0" d="M1034.2,777.5l-26.2,25h67c3.5,0,5.6-0.8,6.5-2.2C1076.3,801.2,1046.4,784.5,1034.2,777.5z"/>
	<path class="st12" d="M1081.5,800.2L1081.5,800.2L1081.5,800.2z"/>
	<path class="st12" d="M1081.9,799.5c3.3-9.4-30.9-38-30.9-38l-16.8,16c12.2,7,42.1,23.7,47.3,22.8l0,0
		C1081.7,800.1,1081.8,799.8,1081.9,799.5z"/>
	<path class="st0" d="M1077,709.5c-1,5-47,13-47,13l-2.9-19.1l-1.1,0.1l7.5,57C1033.5,760.5,1080,719.5,1077,709.5z"/>
	<path class="st12" d="M1077,709.5c-2.6-8.7-42.6-6.5-49.9-6.1l2.9,19.1C1030,722.5,1076,714.5,1077,709.5z"/>
	<line class="st13" x1="1021.7" y1="708.9" x2="1023.4" y2="672.9"/>
	<line class="st13" x1="1014.7" y1="705" x2="1005.3" y2="659.1"/>
	<path class="st14" d="M862,802.8l-46.8-62.3l21.8-23c-2-7-11-38-23-48s-23-10-29-8l-0.2,0.1c-4.5,1.7-6.8,6.6-5.1,11.1
		c0.6,1.6,1.7,3.1,3.1,4.1l11.2,9.8c0,0-25,19-25,40c0,14.6,7.9,22.1,15.7,26l-20.7,29c0,0-21,3-62-9c-12.5-3.7-26-10-38.6-15.8
		c0,13.6-6.3,24.5-15.5,32.6c21.3,8.4,48.3,13.5,69.3,13.5L862,802.8z"/>
	<path class="st15" d="M736,781c3.5,6.7,7.8,13.6,15.3,19.7"/>
	<line class="st15" x1="834" y1="714" x2="826" y2="720"/>
	<path class="st5" d="M663.4,756.7c-21-9.6-39.5-17.5-46.4-8.2c-11.8,16,5.4,30.7,30.8,40.7C657.1,781.2,663.4,770.3,663.4,756.7z"
		/>
	<path class="st0" d="M1045,736.5c0-4.2,5.3-9.8,9.5-11.5c-7.8-21.5-39.2-40.1-71.5-23.5c0,0-4-20-15-28c-10.3-7.5-21-8.2-29-5.2
		l-0.2,0.1c-4.7,1.9-7,7.2-5.1,11.9c0.5,1.3,1.3,2.4,2.3,3.4l14,12.8l-7,13.8c-7.1-6.5-15.5-11.4-24.6-14.5
		c-0.8,37.4-49.9,53.9-74.4,45.7c-8.6-12-15.7-18.2-17.5-19.6l-0.5,0.4c0,0-21-13.8-40,0.2c0,0-10-23-22-32.2c-10.2-7.8-30-8-35-3
		l-0.2,0.2c-4.2,4.3-4.2,11.3,0.2,15.6c0.6,0.6,1.2,1.1,1.9,1.5l14.1,8.8c0,0-36,54,12,89.5h255c38.3,0,47.3-30.7,46.4-55.3
		C1053.9,746.3,1045,743.1,1045,736.5z"/>
	<path class="st5" d="M844,741.5c24.5,8.2,73.6-8.3,74.4-45.7c-10.1-3.6-20.8-4.7-31.4-3.5c-29,3.4-56.7,26.3-60.5,29.6
		C828.3,723.3,835.4,729.5,844,741.5z"/>
	<path class="st3" d="M1045,736.5c0,6.6,8.9,9.8,13.4,11c-0.2-7.2-1.3-14.3-3.4-21.2c-0.1-0.4-0.3-0.9-0.5-1.3
		C1050.3,726.7,1045,732.2,1045,736.5z"/>
	<line class="st13" x1="1037" y1="738.9" x2="1051.2" y2="736.8"/>
	<path class="st13" d="M985.5,702c4.1,16.4,9.1,39.3,11,54"/>
	<line class="st13" x1="941.5" y1="678" x2="937.8" y2="683.6"/>
	<line class="st13" x1="948.5" y1="684" x2="944.6" y2="689.9"/>
	<line class="st13" x1="733.5" y1="696" x2="729.7" y2="701.6"/>
	<line class="st13" x1="741.5" y1="701" x2="737.4" y2="707.1"/>
	<path class="st13" d="M941.5,709.7c-18.2,33.2-33.2,68.5-4.8,91.8"/>
	<path class="st15" d="M854,765c-4-18-16.3-40.5-32-47c-12-5-24-4-35,2c0,0-4.8-10.2-8.6-15.8"/>
	<path class="st13" d="M1029.4,727.2c0,0,3,9.4,7.6,11.6c0,0-3.3,4.7-3.8,13.7"/>
	<path class="st0" d="M904,692.5c0,0-8,14-21,13s-12-20,3-31c6.3-3.7,13.8-4.9,21-3.4c12.8,2.8,20.3,28.5,20.3,28.5
		S914,693.5,904,692.5z"/>
	<polyline class="st16" points="1017,613 1033.5,602.9 1026.1,628.5 1045.5,617 	"/>
	<polyline class="st16" points="1053,571.4 1070.3,570 1054,587.7 1073.5,586.3 	"/>
	<line class="st13" x1="881.4" y1="695.9" x2="881.4" y2="703.5"/>
	<line class="st13" x1="890.6" y1="695" x2="890.6" y2="702.6"/>
	<line class="st13" x1="786.1" y1="671.3" x2="782.5" y2="675.2"/>
	<line class="st13" x1="793.2" y1="676.5" x2="788.9" y2="681.1"/>
	<path class="st6" d="M428.3,292.9L396,270.6l-1.4-1c-8.5-4-31.8-2.9-30.6-12.2c0.2-2,2.6-3.5,6.3-4.5l-46.9-32.3
		c-3.6-2.5-8.6-1.6-11.1,2l-5,7.2c5.6,4.9,6.2,13.4,1.3,19c-4.1,4.7-11,6-16.5,3l-5.7,8.3c-2.5,3.6-1.6,8.6,2,11.1l104.9,72.3
		c3.6,2.5,8.6,1.6,11.1-2l9.1-13.2l16.8-24.3C432.8,300.4,431.9,295.4,428.3,292.9z M367.5,311.5c-11.9,0-21.5-9.6-21.5-21.5
		s9.6-21.5,21.5-21.5S389,278.1,389,290l0,0C389,301.9,379.4,311.5,367.5,311.5z M415,307.9l-12.5,18c-1.1,1.6-3.4,2-5,0.9l0,0
		c-1.6-1.1-2-3.4-0.9-5l12.5-18c1.1-1.6,3.4-2,5-0.9C415.7,304,416.2,306.2,415,307.9L415,307.9L415,307.9z"/>
	<circle class="st6" cx="367.5" cy="290" r="21.5"/>
	<path class="st6" d="M312,240c0-3.9-1.7-7.6-4.6-10.2l-15.2,22.1c2,1.1,4.1,1.6,6.4,1.6C306,253.5,312,247.5,312,240z"/>
	<path class="st17" d="M414.1,302.8c-1.6-1.1-3.9-0.7-5,0.9l-12.5,18c-1.1,1.6-0.7,3.9,0.9,5l0,0c1.6,1.1,3.9,0.7,5-0.9l12.5-18
		C416.1,306.2,415.7,304,414.1,302.8z"/>
	<path class="st18" d="M379,333.5c0,0-9,10-18,1c0,0-11,3-15-6c0,0-9,4-13-5c-0.3-0.6-5.2,2.2-10-4c-7-9-11-34-5-35
		c10.3-1.7,14.7,17.6,14.8,17c2.2-7.6,6.2-14,10.2-14c7,0,8,7,8,7s4.2-5.6,10-4c7,2,5,11,5,11s6.4-4.3,10,2c4,7-4,16-3,26L379,333.5
		z"/>
	<path class="st19" d="M365.4,299.9c-4.3,7.5-11,21.9-6.8,33.1"/>
	<path class="st19" d="M350.2,293c-2.7,6.4-8.4,21.9-5.9,34.4"/>
	<path class="st19" d="M331.7,299c-1.3,6.4-2.3,14.9-0.6,22.7"/>
	<path class="st7" d="M709,150.5c12-4,26-21,16-35c-13.2-18.6-36,6-36,6c-9.6-7-17-16.8-21-28c-3,1-12,2-19,0l0,0c0,0-3,8-5,22
		c-0.3,1.9-0.6,3.8-0.9,5.5c0,0-9.1-0.5-10.1,3.5c-1.2,4.9,6.7,10.2,6.7,10.2c-3.1,11.2-5.7,19.8-1.7,29.8c3.5,8.8,11,19,35,16
		l-1.4,10.5h71.6c0.4-4.2,0.9-9.2,1.4-14.6C736.4,173.7,716.1,165.6,709,150.5z"/>
	<path class="st3" d="M717,60.5c-29-13-56,7-56,7s-24.7-7.1-26,9c-1,12,14,17,14,17l0,0c7,2,16,1,19,0c4,11.2,11.4,21,21,28
		c0,0,22.8-24.6,36-6c10,14-4,31-16,35c7.1,15.1,27.4,23.2,35.6,25.9c1.8-19.1,3.9-43.2,4.4-54.9C749.9,102.4,748,74.4,717,60.5z"/>
	<path class="st7" d="M518,280.5c0,0-70-20-97-26c-16.4-3.6-39.6-4.6-50.7-1.5c-3.7,1-6.1,2.5-6.3,4.5c-1.2,9.3,22,8.2,30.6,12.2
		l33.7,23.2c3.6,2.5,4.5,7.5,2,11.1l-16.8,24.3c25.8,13.4,53.7,22.2,82.5,26.2c26.5,3.7,58.7-11.1,81.8-24.7L539.1,266
		C526.7,274.5,518,280.5,518,280.5z"/>
	<path class="st17" d="M743.2,191h-71.6l-1.6,12.5c0,0-35.2-0.7-60,15c-18.8,11.9-50.1,33.2-70.9,47.5l38.7,63.9
		c10.5-6.1,20.6-12.9,30.2-20.3l-26,76h173l-13-182C742,203.5,742.5,198.5,743.2,191z"/>
	<line class="st9" x1="668" y1="206" x2="666.5" y2="218"/>
	<line class="st20" x1="620.5" y1="268" x2="607" y2="308"/>
	<path class="st19" d="M647.8,144c1.7,1,7.8,1.8,10.4-2.9"/>
	<circle cx="660" cy="117.5" r="3"/>
	<line class="st19" x1="712" y1="127.5" x2="701" y2="134.5"/>
	<line class="st9" x1="684.9" y1="193" x2="683.2" y2="206"/>
	<line class="st9" x1="699.8" y1="193" x2="698.2" y2="206"/>
	<line class="st9" x1="714.8" y1="193" x2="713.2" y2="206"/>
	<path class="st19" d="M673.7,182.3c4.8-0.8,11.4-2.6,16.8-6.3"/>
	<path class="st7" d="M748.2,332.5l1.8,37c0,0-84.3,23.6-113.1,45.2c-13,9.8-29,28.1-34.9,35.8s-30.3,43-20,44s26.1-21.2,26.1-21.2
		s-10.1,27.2-7.1,36.2s12.3,2.8,12.3,2.8c8.7,10.2,16.4-1.1,16.4-1.1c15.3,11.3,30.8-44.1,30.8-44.1c8.4-4.1,16-9.9,22.1-16.9
		c0,0,85.6,3.4,119.3-24.7c16.9-14.1,25.2-51.5,25.5-93L748.2,332.5L748.2,332.5z"/>
	<path class="st17" d="M814,237.5c-7.4-22.6-32-34-47-34h-25l6.2,129h79.3C827.8,300.2,823.2,265.5,814,237.5z"/>
	<line class="st9" x1="750.4" y1="331.6" x2="747.5" y2="270"/>
	<line class="st19" x1="751.6" y1="367" x2="766.5" y2="363"/>
	<path class="st19" d="M605.8,475.1c3.1-8.4,7.9-20.8,11.7-29.1"/>
	<path class="st19" d="M631.5,453c-10.7,23.1-17,49-19,58.4"/>
	<path class="st19" d="M646.5,461c-6.9,15.8-13.2,36.8-16.6,49.1"/>
</g>
</svg>
