<?xml version="1.0" encoding="utf-8"?>
<!-- Generator: Adobe Illustrator 26.5.0, SVG Export Plug-In . SVG Version: 6.00 Build 0)  -->
<svg version="1.1" id="Capa_1" xmlns="http://www.w3.org/2000/svg" xmlns:xlink="http://www.w3.org/1999/xlink" x="0px" y="0px"
	 viewBox="0 0 1653.5 1631.7" style="enable-background:new 0 0 1653.5 1631.7;" xml:space="preserve">
<style type="text/css">
	.st0{fill:none;stroke:#070707;stroke-width:6;stroke-linecap:round;stroke-linejoin:round;}
	.st1{fill:#F4F1ED;stroke:#070707;stroke-width:6;stroke-linecap:round;stroke-linejoin:round;}
	.st2{fill:#EAE5DF;}
	.st3{fill:#FFFBF8;stroke:#070707;stroke-width:6;stroke-linecap:round;stroke-linejoin:round;}
	.st4{fill:#EFAF00;stroke:#000000;stroke-width:6;stroke-linecap:round;stroke-linejoin:round;}
	.st5{fill:none;stroke:#FFC3D5;stroke-width:6;stroke-miterlimit:10;}
	.st6{font-family:'MyriadPro-Regular';}
	.st7{font-size:12px;}
	.st8{fill:#C5DCDD;stroke:#000000;stroke-width:6;stroke-linecap:round;stroke-linejoin:round;}
	.st9{fill:none;stroke:#4B556A;stroke-width:6;stroke-miterlimit:10;}
	.st10{fill:#C48270;stroke:#0F0F0F;stroke-width:6;stroke-linecap:round;stroke-linejoin:round;}
	.st11{fill:#E38E32;}
	.st12{fill:#F9A09B;stroke:#000000;stroke-width:6;stroke-linecap:round;stroke-linejoin:round;}
	.st13{fill:#F46F40;stroke:#000000;stroke-width:6;stroke-linecap:round;stroke-linejoin:round;}
	.st14{fill:#1C0E0C;}
	.st15{fill:#C48270;}
</style>
<g id="Layer_1">
	<g id="CHAIR">
		<path class="st0" d="M635.9,1234.2c-11.5,0-20.9,9-20.9,20.2V1423c0,33.9,28.4,61.3,63.4,61.3h106.9c20.8,0,37.7,16.3,37.7,36.5"
			/>
		<path class="st0" d="M570.6,1234.2c11.5,0,20.8,9,20.8,20.2V1423c0,33.9-28.4,61.3-63.4,61.3H421.1c-20.8,0-37.7,16.3-37.7,36.5"
			/>
		<ellipse class="st1" cx="603.2" cy="740.7" rx="504" ry="476.8"/>
		<ellipse class="st2" cx="603.2" cy="709.8" rx="446.6" ry="422.5"/>
		<path class="st3" d="M908.9,967.5c18.7,2.8,26,25.8,12.4,38.9c-81,77.7-193.6,125.9-318,125.9c-124.3,0-236.7-48-317.6-125.5
			c-13.7-13.1-6.4-36.1,12.3-38.9c93.9-14.2,197.7-22,306.8-22C712.8,945.9,815.7,953.6,908.9,967.5z"/>
		<circle class="st0" cx="384.1" cy="1559.4" r="38.6"/>
		<circle class="st0" cx="605.1" cy="1559.4" r="38.6"/>
		<circle class="st0" cx="823.5" cy="1559.4" r="38.6"/>
	</g>
	<g id="PLANT">
		<g id="PLANT-2">
			<path class="st4" d="M1436,905.7c-53.5,81-154.4,125.3-199,100.3c-43.1-24.2-46.9-143.6,6.7-224.7s143-118.9,195.1-84.6
				S1489.6,824.7,1436,905.7z"/>
			<path class="st0" d="M1243,1279c0,0-53.9-437.4,195.4-580.3"/>
			<line class="st0" x1="1473.7" y1="796.3" x2="1324.4" y2="811.6"/>
			<line class="st0" x1="1471.7" y1="812.1" x2="1315" y2="828.1"/>
			<line class="st0" x1="1245.5" y1="782.2" x2="1283.4" y2="894.3"/>
			<path class="st4" d="M1633.9,1129.1c-16.6,42.7-89.1,54.4-162,26.1s-101.1-84.4-97.9-103.1c4-23.5,90.1-63.7,157.8-51.6
				C1608.9,1014.4,1650.5,1086.4,1633.9,1129.1z"/>
			<path class="st0" d="M1198.4,1279c0,0-6.5-192.1,196.4-231.6c111.1-21.6,197,34.2,236.4,81.6"/>
			<line class="st0" x1="1505.7" y1="1050.5" x2="1575" y2="1018.7"/>
			<line class="st0" x1="1523" y1="1056" x2="1587.5" y2="1025.8"/>
			<line class="st0" x1="1477" y1="1044.9" x2="1504" y2="1162.6"/>
			<path class="st4" d="M1157.7,993.6c32.9,49.7,27.8,120.1,1,136.4c-16.2,9.9-84.5-8-117.4-57.7c-32.9-49.7-32.8-109.3-0.9-130.5
				C1072.3,920.7,1124.8,943.9,1157.7,993.6z"/>
			<path class="st0" d="M1174.1,1279c0,0,18.5-248.5-132.8-334.6"/>
			<line class="st0" x1="1020.3" y1="1017" x2="1115.7" y2="1017"/>
			<line class="st0" x1="1025.1" y1="1033.5" x2="1125.2" y2="1033.5"/>
			<line class="st0" x1="1160" y1="1000.4" x2="1142.9" y2="1068.9"/>
		</g>
		<g id="VASE">
			<path class="st1" d="M1346.3,1321.5v172.8c0,23.4-18.9,42.4-42.4,42.4c0,0-0.1,0-0.1,0H1131c-23.4,0-42.4-18.9-42.4-42.4
				c0,0,0,0,0-0.1v-172.8c0-23.4,19-42.4,42.4-42.4h172.8C1327.3,1279,1346.3,1298,1346.3,1321.5z"/>
			<path class="st5" d="M1129.7,1279h175.5c22.7,0,41.1,18.4,41.1,41.1v175.5c0,22.7-18.4,41.1-41.1,41.1h-175.5
				c-22.7,0-41.1-18.4-41.1-41.1v-175.5C1088.6,1297.4,1107,1279,1129.7,1279z"/>
			<path class="st0" d="M1346.3,1321.5v172.8c0,23.4-18.9,42.4-42.4,42.4c0,0-0.1,0-0.1,0H1131c-23.4,0-42.4-18.9-42.4-42.4
				c0,0,0,0,0-0.1v-172.8c0-23.4,19-42.4,42.4-42.4h172.8C1327.3,1279,1346.3,1298,1346.3,1321.5z"/>
		</g>
	</g>
	<text transform="matrix(1 0 0 1 729.591 849.6302)" class="st6 st7">faf9f7</text>
</g>
<g id="Layer_3">
	<g id="LEGS">
		<path id="HIPS" class="st8" d="M780.4,662.7c0,0,106.5,176.4,58,260.8s-134.1,115.7-235.2,104.8C347,1000.8,31.6,803.6,39.5,739.9
			C50.3,654.1,522,752.5,522,752.5l42-88.9L780.4,662.7z"/>
		<g id="LEFT_LEG">
			<path id="LEG" class="st8" d="M42.5,729.8c-14.2,14.7-118.2,218.6,509.5,366.9l23.6-43.3C575.6,1053.4,155,614,42.5,729.8z"/>
			<path id="SHADOW" class="st9" d="M576.5,1053.4c0,0-210.6-220-373.6-307.7"/>
			<path id="FOOT" class="st10" d="M552.1,1096.7c29,5.2,152.2,47.8,179.5,42.1s-16-86.6-33-90s-101,6.1-122.9,4.6
				S552.1,1096.7,552.1,1096.7z"/>
		</g>
		<g id="RIGHT_LEG">
			<path id="LEG-2" class="st8" d="M701.2,915.4c-109.3,230.5-420.7,493.4-420.7,493.4s-23.5-20.4-53.1-21.6
				c0,0,278.6-619.7,436-649.7C790.6,713.1,719.6,876.7,701.2,915.4z"/>
			<path id="FOOT-2" class="st10" d="M227.3,1385.7c-27.8,44.3-70.7,137.4-97.7,169.7c-8.8,10.5,68.6,13.6,80.3,4.3
				c16.1-12.8,17.4-60.8,49.4-67c22.4-4.3,44.9-19.2,34.4-40.9c-14.7-30.4-12.6-44.8-12.6-44.8
				C255.9,1378.8,227.3,1385.7,227.3,1385.7z"/>
		</g>
	</g>
	<g id="LEFT_HAND">
		<path id="HAND" class="st10" d="M572.3,330.8c51.1,83.5-16.2,277-47.1,305.9c-57.3,53.6-307.3,46-307.3,46l-10.2-23
			c0,0,137.8-75.1,247.7-81.1c0,0,29.3-150.8,39.1-194C506.8,330.1,537,273.1,572.3,330.8z"/>
		<path id="ARM" class="st11" d="M235.9,661.7c-5.5-13.8-52.7-5.2-71.4,3.6c-15.9,7.4-35.2,27.3-38.4,31.5
			c-3.2,4.2-10.2,25.5-10.2,25.5s6.8,7.2,15.9-5.3s32.9-26.9,38.8-23.7c13.2,7.1-18.8,9.8-22.3,14.9s-1.8,8.1-1.8,8.1s30.2-1.4,35-2
			s24.1-9.3,33.5-17.2S239.4,670.3,235.9,661.7z"/>
	</g>
	<path id="TORSO" class="st1" d="M775.6,280.2c15.5,4.6,64,22.7,64,22.7s-4.1,117.3-17.9,145c-57.6,116.2-39.7,223.3-39.7,223.3
		s-136.5,22.7-220,0.8c0,0,10.9-88.4-6.9-99s-47.1-34.3-39-82.2c8.1-47.9,6.2-173.4,16-181.5s53-29.2,64.2-29.2
		S775.6,280.2,775.6,280.2z"/>
	<g id="LAPTOP">
		<path class="st12" d="M349.6,517H43.9c-11.5,0-20.9,9.4-20.9,20.9c0,2.5,0.4,4.9,1.3,7.2l77,209.4h357.9l-79.7-216.6
			C374.9,525.4,363,517,349.6,517z"/>
		<path class="st12" d="M343.6,527.6h-298c-11.3,0-20.4,9.1-20.4,20.4c0,2.4,0.4,4.8,1.3,7l75.1,204.2h349L372.8,548
			C368.3,535.8,356.6,527.6,343.6,527.6z"/>
		<path class="st13" d="M101.5,755.2h506.2c11.9,0,21.6,9.7,21.6,21.6v4.8l0,0H123.1c-11.9,0-21.6-9.7-21.6-21.6V755.2L101.5,755.2z
			"/>
		<path class="st13" d="M349.6,517H43.9c-11.5,0-20.9,9.4-20.9,20.9c0,2.5,0.4,4.9,1.3,7.2l77,209.4h357.9l-79.7-216.6
			C374.9,525.4,363,517,349.6,517z"/>
		
			<ellipse transform="matrix(0.6691 -0.7431 0.7431 0.6691 -404.9077 381.6447)" class="st13" cx="226.1" cy="645.5" rx="19.6" ry="24.2"/>
		<rect x="486.2" y="764.6" class="st12" width="21.4" height="7.7"/>
		<rect x="527.1" y="764.6" class="st12" width="21.4" height="7.7"/>
	</g>
	<path class="st14" d="M623.3,51.3c0,0-73.7-34.6-119.4,37.9c-45.8,72.7,17,105-15.8,142.1c-35.5,40.2-80.4,63.7-44,143.3
		c37.1,81.2-57.5,51.2-37.1,141.6h160.5c0,0,69.1-24.2,48.3-83.7s-65.1-67.8-23.5-120.3c31.2-39.5,175.4-31.4,188.4-28
		s68.1,22.3,68.1,22.3s21.9-65.7-9.4-101.8c-39.7-45.7-105.9-12-118-65.7c-8.2-36.2-24-78.2-50.3-86.2
		C642.8,44.2,623.3,51.3,623.3,51.3z"/>
	<path class="st0" d="M616.7,60.4c0,0-15.5-24.1-94.2,30.8c-48.6,33.9-14.6,103-47.4,140.1c-35.5,40.2-80.4,63.7-44,143.3
		c37.1,81.2-57.5,51.2-37.1,141.6"/>
	<path class="st10" d="M679.5,177.5c0,0-2.5,54.7,17.5,82.7c13.6,19,1.4,17.5,48.7,22.9c0,0,4.9,70.2-104.6,70.2
		c-81.3,0-48.8-41.1-48.8-41.1s33.9-49.2,19.3-134.7L679.5,177.5z"/>
	<path class="st14" d="M680.6,173.2c0,0,2.1,109.9-85.8,109.9c-1.8,0-3.5-0.4-5.1-1.2c4.6-3.2,33.5-26.9,19.2-110.1h71.7
		C680.6,171.8,680.6,172.3,680.6,173.2L680.6,173.2z"/>
	<path id="HEAD" class="st10" d="M683,171.4c0,0-12.6,93.9-72.2,94.4c-39.2,0.3-61.9-54.7-71.1-83.6c-10.5-32.9,0.6-98.7,56.6-97.9
		c48.6,0.7,74,67,74,67L683,171.4z"/>
	<path class="st0" d="M671.5,166.7c0,0-2.4-8.1-0.2-15.5c1.4-4.7,4.7-9,11.5-10.7"/>
	<line class="st0" x1="682.8" y1="156.5" x2="671.3" y2="151.2"/>
	<path class="st10" d="M771.9,311.4c0,0-34.4,89.1,20.6,137c17.7,15.4,43.9,1.3,43.9,1.3"/>
	<path class="st10" d="M797.7,401.8c19.6,62.1,45.6,149.8,45.6,149.8c-103.1,5.6-258.5,68.1-277.5,75.9c-31.4,7-75.9,32.4-84.5,37.6
		c-8,4.6-20.6,17.2-24.4,22.2c-4,5.3-13.3,24.3-13.3,24.3c4.1,2,9,1,11.9-2.5c3.7-4,9.8-13.6,14.8-18.3c-4.5,11.2-8.7,22.9-8.7,22.9
		s11.1,2.7,25.3-1.9c6.8-2.2,14.4-15.3,22.3-23.9c8-8.6,25.4-4.5,42.8-7.5s29.5-28.5,29.5-28.5l-0.2-0.4
		c45.2,0.8,283.2,2.3,335.1-46.1c31-28.9-9.2-217.3-60.3-300.9c-22.5-36.7-56-31.8-71.7-8.4c-5.2,7.8-11.5,12.3-11.8,23.4"/>
	<path class="st0" d="M470.6,714.3c-0.2,0-0.4,0-0.6-0.1c-0.5-0.2-0.8-0.8-0.6-1.3c0,0,0-0.1,0-0.1c1.3-3.2,13.2-31.2,18.5-34.9
		c9.1-6.6,20.9-15.2,20.9-15.2l1.2,1.7c0,0-11.8,8.6-20.9,15.2c-4,2.9-14.2,25.6-17.8,34C471.3,714,471,714.3,470.6,714.3z"/>
	<path class="st0" d="M482,712.4c-0.6,0.1-1.1-0.3-1.2-0.9c0-0.2,0-0.4,0.1-0.6c0.5-1,11.9-25.7,17.2-29.6
		c9.1-6.6,20.9-15.2,20.9-15.2l1.2,1.7c0,0-11.9,8.6-20.9,15.2c-4,2.9-13.3,21.7-16.5,28.8C482.6,712.1,482.3,712.4,482,712.4z"/>
	<path class="st14" d="M666.5,193.4c0,0-0.2,120.9,65.3,129.6s117.3-34.7,117.3-34.7"/>
	<polyline class="st0" points="585.6,173 582,202.2 594.4,209.5 	"/>
	<ellipse transform="matrix(0.9436 -0.3312 0.3312 0.9436 -21.0774 211.181)" class="st14" cx="609.1" cy="167.4" rx="5" ry="6.6"/>
	
		<ellipse transform="matrix(0.9436 -0.3312 0.3312 0.9436 -27.3216 197.1671)" class="st14" cx="564.9" cy="178.8" rx="5" ry="6.6"/>
	<path class="st0" d="M593.4,147.3c0,0,8.6-10.3,27.3-1.3"/>
	<path class="st0" d="M547.7,161.7c0,0,4.9-12.6,22.8-7.2"/>
	<path class="st14" d="M574.7,79.6c0,0,28.9-12,38.6,16.6s25.4,52.5,57.1,35.9s18.7-38.2,18.7-38.2"/>
	<circle class="st15" cx="674.5" cy="151.2" r="20.7"/>
	<path class="st0" d="M666.7,163.8c0,0-2.4-8.1-0.2-15.5c1.4-4.7,4.6-9,11.5-10.7"/>
	<line class="st0" x1="678" y1="153.7" x2="666.5" y2="148.3"/>
	<path class="st4" d="M665.5,129.2c-5.9-53.8-59.5-84.6-60-84.8l25.8,1.8c3.1,1.1,32.8,5.2,60.6,76.6L665.5,129.2z"/>
	
		<ellipse transform="matrix(0.9912 -0.1323 0.1323 0.9912 -15.4374 91.4437)" class="st4" cx="680.7" cy="161.9" rx="24.8" ry="40.5"/>
	
		<ellipse transform="matrix(0.9912 -0.1323 0.1323 0.9912 -15.212 92.5677)" class="st4" cx="689.2" cy="160.8" rx="24.8" ry="40.5"/>
	<path class="st0" d="M594.4,224.3c0,0,19.3,3.3,27.9-15.7"/>
</g>
</svg>
