<?xml version="1.0" encoding="utf-8"?>
<!-- Generator: Adobe Illustrator 26.5.0, SVG Export Plug-In . SVG Version: 6.00 Build 0)  -->
<svg version="1.1" id="Capa_1" xmlns="http://www.w3.org/2000/svg" xmlns:xlink="http://www.w3.org/1999/xlink" x="0px" y="0px"
	 viewBox="0 0 249.8 110.7" style="enable-background:new 0 0 249.8 110.7;" xml:space="preserve">
<style type="text/css">
	.st0{fill:#FFFFFF;}
</style>
<g id="_x34_">
</g>
<g id="_x33_">
	<g>
		<g>
			<rect x="21.7" y="83.9" class="st0" width="206.9" height="5.1"/>
		</g>
		<g>
			<path class="st0" d="M22.9,21.8H29l6,14.8l5.9-14.8H47v21.3h-5.2V30.4l-4.8,12.8h-4.2l-4.8-12.8v12.8h-5.2V21.8z"/>
		</g>
		<g>
			<path class="st0" d="M67.7,26h-7.9v4.3h7v4h-7V39h7.9v4.2H54.7V21.8h13.1C67.7,21.8,67.7,26,67.7,26z"/>
		</g>
		<g>
			<path class="st0" d="M82.7,43.4c-4.6,0-8.2-2.3-8.3-6.6h5.5c0.2,1.6,1.2,2.4,2.6,2.4c1.5,0,2.5-0.8,2.5-2c0-4-10.7-1.8-10.6-9.4
				c0-4,3.3-6.3,7.8-6.3c4.7,0,7.8,2.3,8,6.4h-5.6c-0.1-1.4-1.1-2.2-2.5-2.2c-1.2,0-2.2,0.6-2.2,1.9c0,3.7,10.5,2,10.5,9.2
				C90.5,40.4,87.7,43.4,82.7,43.4z"/>
		</g>
		<g>
			<path class="st0" d="M107.7,43.4c-6,0-11-4.5-11-10.9c0-6.4,4.9-10.9,11-10.9c6.1,0,10.9,4.5,10.9,10.9
				C118.6,38.8,113.7,43.4,107.7,43.4z M107.7,38.6c3.4,0,5.6-2.5,5.6-6.2c0-3.8-2.2-6.2-5.6-6.2c-3.5,0-5.7,2.4-5.7,6.2
				C102,36.2,104.2,38.6,107.7,38.6z"/>
		</g>
		<g>
			<path class="st0" d="M144.5,21.8v21.3h-5.2L130.6,30v13.2h-5.2V21.8h5.2l8.7,13.2V21.8H144.5z"/>
		</g>
		<g>
			<path class="st0" d="M42,63.8c0,6.3-4.4,10.7-11.2,10.7h-8V53.1h8C37.7,53.1,42,57.4,42,63.8z M30.5,69.9c3.9,0,6.2-2.2,6.2-6.2
				c0-3.9-2.3-6.2-6.2-6.2h-2.5v12.4H30.5z"/>
		</g>
		<g>
			<path class="st0" d="M46,53.1h5.2v21.3H46V53.1z"/>
		</g>
		<g>
			<path class="st0" d="M75.9,59.8h-5.7c-0.8-1.4-2.2-2.2-4.2-2.2c-3.3,0-5.6,2.4-5.6,6.1c0,4,2.2,6.3,6,6.3c2.6,0,4.4-1.4,5.2-3.8
				H65v-3.8h11.3v4.8c-1.1,3.7-4.7,7.4-10.3,7.4c-6.4,0-10.9-4.5-10.9-10.9c0-6.4,4.5-10.9,10.9-10.9C71.1,52.9,74.8,55.5,75.9,59.8
				z"/>
		</g>
		<g>
			<path class="st0" d="M80.2,53.1h5.2v21.3h-5.2V53.1z"/>
		</g>
		<g>
			<path class="st0" d="M89,53.1h16.5v4.2h-5.7v17.2h-5.2V57.3H89V53.1z"/>
		</g>
		<g>
			<path class="st0" d="M122.5,70.7h-8l-1.3,3.8h-5.4l7.7-21.3h6l7.7,21.3h-5.5L122.5,70.7z M118.5,58.8l-2.6,7.8h5.3L118.5,58.8z"
				/>
		</g>
		<g>
			<path class="st0" d="M137.8,53.1v17.3h6.8v4h-12V53.1H137.8z"/>
		</g>
		<g>
			<path class="st0" d="M151.9,74.7c-1.9,0-3.1-1.2-3.1-2.8c0-1.6,1.2-2.9,3.1-2.9c1.8,0,3.1,1.2,3.1,2.9
				C154.9,73.4,153.7,74.7,151.9,74.7z"/>
		</g>
		<g>
			<path class="st0" d="M167.6,52.9c5.1,0,8.9,2.9,10.1,7.5H172c-0.9-1.8-2.5-2.7-4.5-2.7c-3.2,0-5.4,2.4-5.4,6.1
				c0,3.8,2.2,6.1,5.4,6.1c2,0,3.6-0.9,4.5-2.7h5.7c-1.2,4.6-5,7.4-10.1,7.4c-6.3,0-10.7-4.5-10.7-10.9
				C156.9,57.4,161.3,52.9,167.6,52.9z"/>
		</g>
		<g>
			<path class="st0" d="M187.2,53.1v17.3h6.8v4h-12V53.1H187.2z"/>
		</g>
		<g>
			<polygon class="st0" points="213.4,74.5 205.1,66.1 208.7,62.5 213.4,67.3 224.9,55.8 228.6,59.4 			"/>
		</g>
	</g>
</g>
<g id="_x32_">
</g>
<g id="_x31_">
</g>
</svg>
