<?xml version="1.0" encoding="utf-8"?>
<!-- Generator: Adobe Illustrator 16.0.0, SVG Export Plug-In . SVG Version: 6.00 Build 0)  -->
<!DOCTYPE svg PUBLIC "-//W3C//DTD SVG 1.1//EN" "http://www.w3.org/Graphics/SVG/1.1/DTD/svg11.dtd">
<svg version="1.1" xmlns="http://www.w3.org/2000/svg" xmlns:xlink="http://www.w3.org/1999/xlink" x="0px" y="0px"
	 width="244.237px" height="246.406px" viewBox="0 0 244.237 246.406" enable-background="new 0 0 244.237 246.406"
	 xml:space="preserve">
<g id="_x33_">
</g>
<g id="_x32_">
</g>
<g id="_x31_">
	<g>
		<polygon fill="#4D0FFF" points="18.979,53.8 35.959,63.273 33.332,67.994 23.958,62.77 31.544,71.197 29.344,75.144 18.1,73.11 
			27.539,78.373 24.911,83.093 7.929,73.627 11.112,67.914 24.521,69.807 15.812,59.487 		"/>
		<polygon fill="#4D0FFF" points="29.525,47.842 31.959,49.881 35.933,45.115 39.091,47.75 35.113,52.509 37.8,54.754 
			42.309,49.359 45.629,52.132 37.662,61.678 22.733,49.226 30.704,39.673 34.032,42.447 		"/>
		<g>
			<path fill="#4D0FFF" d="M47.337,48.432c-1.798,0.165-3.401-0.464-4.813-1.887l4.29-3.834c0.493,0.464,0.969,0.702,1.437,0.702
				c0.47,0,0.908-0.178,1.32-0.549c0.368-0.331,0.587-0.695,0.666-1.1c0.073-0.397-0.037-0.754-0.328-1.092
				c-0.378-0.423-0.87-0.568-1.476-0.449c-0.603,0.125-1.477,0.437-2.628,0.946c-1.225,0.53-2.258,0.908-3.101,1.132
				c-0.848,0.219-1.739,0.245-2.675,0.06c-0.938-0.179-1.813-0.734-2.632-1.648c-0.831-0.939-1.307-1.946-1.439-3.025
				c-0.124-1.079,0.068-2.159,0.584-3.238c0.517-1.078,1.296-2.085,2.335-3.012c1.681-1.508,3.376-2.317,5.084-2.429
				c1.707-0.112,3.233,0.517,4.568,1.887l-4.369,3.906c-0.404-0.423-0.834-0.629-1.278-0.629c-0.455,0.007-0.874,0.193-1.271,0.542
				c-0.303,0.272-0.47,0.583-0.501,0.934c-0.033,0.351,0.099,0.688,0.388,1.013c0.248,0.278,0.565,0.417,0.954,0.43
				c0.391,0.006,0.804-0.06,1.247-0.193c0.443-0.138,1.072-0.377,1.885-0.708c1.197-0.502,2.23-0.867,3.1-1.092
				c0.872-0.225,1.768-0.251,2.694-0.079c0.925,0.172,1.767,0.682,2.521,1.53c0.768,0.866,1.245,1.833,1.423,2.906
				c0.179,1.072,0.04,2.164-0.417,3.297c-0.459,1.118-1.245,2.185-2.353,3.177C50.868,47.432,49.133,48.267,47.337,48.432"/>
			<path fill="#4D0FFF" d="M66.657,27.936c0.205-1.185-0.082-2.423-0.875-3.707c-0.81-1.317-1.788-2.145-2.939-2.482
				c-1.146-0.338-2.304-0.146-3.478,0.576c-1.191,0.728-1.892,1.682-2.098,2.854c-0.204,1.179,0.099,2.422,0.907,3.733
				c0.8,1.304,1.769,2.125,2.915,2.469c1.137,0.344,2.304,0.152,3.489-0.583C65.756,30.075,66.444,29.121,66.657,27.936
				 M62.266,36.615c-1.749,0.066-3.401-0.312-4.95-1.132c-1.558-0.828-2.835-2.052-3.839-3.681c-1-1.628-1.519-3.323-1.556-5.077
				c-0.033-1.76,0.375-3.402,1.232-4.919c0.857-1.522,2.058-2.76,3.607-3.713c1.569-0.959,3.217-1.483,4.956-1.556
				c1.73-0.079,3.371,0.298,4.919,1.132c1.549,0.827,2.819,2.052,3.821,3.681c1.004,1.635,1.523,3.323,1.569,5.078
				c0.04,1.754-0.364,3.396-1.213,4.926c-0.852,1.528-2.05,2.766-3.599,3.72C65.661,36.025,64.013,36.542,62.266,36.615"/>
		</g>
		<polygon fill="#4D0FFF" points="93.937,22.826 88.867,24.706 78.341,17.013 82.114,27.201 77.047,29.082 70.295,10.85 
			75.362,8.97 85.934,16.794 82.111,6.475 87.176,4.594 		"/>
		<g>
			<path fill="#4D0FFF" d="M111.301,13.869c0.794-0.96,1.099-2.225,0.918-3.799c-0.186-1.589-0.774-2.761-1.771-3.522
				c-0.996-0.768-2.28-1.052-3.849-0.874l-1.867,0.219l1.153,9.91l1.865-0.212C109.322,15.404,110.507,14.835,111.301,13.869
				 M111.937,1.569c1.622,0.636,2.924,1.635,3.917,2.999c0.993,1.364,1.597,2.992,1.82,4.873c0.214,1.859-0.011,3.568-0.669,5.13
				c-0.662,1.556-1.708,2.84-3.137,3.846c-1.431,1.006-3.145,1.629-5.156,1.86l-7.641,0.894l-2.249-19.31l7.639-0.894
				C108.499,0.735,110.315,0.934,111.937,1.569"/>
		</g>
		
			<rect x="113.774" y="7.059" transform="matrix(0.0162 -0.9999 0.9999 0.0162 111.7319 133.08)" fill="#4D0FFF" width="19.438" height="5.405"/>
		<g>
			<path fill="#4D0FFF" d="M142.783,8.268c-0.229-0.556-0.596-1.006-1.089-1.363c-0.497-0.351-1.102-0.576-1.834-0.689
				c-1.343-0.199-2.462,0.08-3.362,0.834c-0.903,0.754-1.459,1.867-1.682,3.336c-0.245,1.655-0.02,2.973,0.675,3.953
				c0.7,0.993,1.834,1.602,3.416,1.833c1.867,0.278,3.33-0.364,4.376-1.933l-5.362-0.801l0.574-3.833l9.963,1.482l-0.772,5.17
				c-0.57,0.953-1.324,1.813-2.265,2.582c-0.935,0.774-2.065,1.35-3.389,1.734c-1.319,0.39-2.767,0.463-4.342,0.231
				c-1.927-0.292-3.564-0.954-4.921-1.999c-1.355-1.053-2.328-2.37-2.918-3.972c-0.583-1.596-0.734-3.35-0.452-5.25
				c0.287-1.894,0.936-3.516,1.966-4.873c1.029-1.357,2.339-2.337,3.933-2.946c1.591-0.608,3.349-0.767,5.276-0.483
				c2.41,0.364,4.325,1.239,5.727,2.642c1.403,1.39,2.147,3.125,2.227,5.197L142.783,8.268z"/>
		</g>
		
			<rect x="144.047" y="11.577" transform="matrix(0.2792 -0.9602 0.9602 0.2792 97.1224 157.9451)" fill="#4D0FFF" width="19.441" height="5.405"/>
		<polygon fill="#4D0FFF" points="177.196,12.784 175.526,16.741 170.747,14.729 164.864,28.677 159.885,26.586 165.763,12.631 
			161.037,10.638 162.712,6.673 		"/>
		<path fill="#4D0FFF" d="M183.966,30.988l1.635-6.421l-5.142,4.164L183.966,30.988z M182.87,35.198l-5.807-3.728l-2.59,2.1
			l-4.785-3.072l16.477-12.525l5.244,3.369l-4.575,20.172l-4.8-3.085L182.87,35.198z"/>
		<polygon fill="#4D0FFF" points="194.236,42.977 198.749,47.001 195.997,50.087 187.451,42.474 200.391,27.962 204.422,31.557 		
			"/>
		<g>
			<path fill="#4D0FFF" d="M197.676,51.218c-0.007-0.774,0.287-1.443,0.883-1.986c0.596-0.55,1.284-0.794,2.071-0.721
				c0.779,0.059,1.503,0.443,2.146,1.151c0.635,0.689,0.953,1.43,0.953,2.211c-0.002,0.788-0.3,1.463-0.896,2.005
				c-0.581,0.537-1.265,0.768-2.05,0.709c-0.787-0.073-1.496-0.45-2.131-1.139C198.009,52.748,197.679,52.007,197.676,51.218"/>
			<path fill="#4D0FFF" d="M214.962,48.789c1.68-0.206,3.282,0.059,4.807,0.781c1.522,0.728,2.833,1.874,3.926,3.436
				c1.388,1.993,2.023,4.038,1.913,6.136c-0.114,2.1-0.947,3.979-2.488,5.647l-3.326-4.772c0.399-0.702,0.583-1.417,0.546-2.146
				c-0.04-0.721-0.285-1.423-0.744-2.085c-0.715-1.026-1.653-1.589-2.805-1.688c-1.159-0.1-2.343,0.278-3.562,1.132
				c-1.231,0.867-1.999,1.859-2.304,2.979c-0.3,1.125-0.092,2.197,0.623,3.217c0.461,0.669,1.024,1.139,1.692,1.423
				c0.664,0.285,1.406,0.358,2.205,0.226l3.323,4.766c-2.089,0.881-4.138,1.013-6.141,0.403c-2.008-0.615-3.701-1.913-5.091-3.906
				c-1.092-1.562-1.716-3.19-1.875-4.879c-0.159-1.681,0.152-3.277,0.916-4.792c0.769-1.517,1.94-2.826,3.516-3.933
				C211.658,49.643,213.279,48.988,214.962,48.789"/>
		</g>
		<polygon fill="#4D0FFF" points="219.696,76.725 222.336,82.161 218.618,83.967 213.612,73.673 231.096,65.173 233.463,70.032 		
			"/>
		<polygon fill="#4D0FFF" points="19.904,141.045 17.874,141.256 17.342,136.04 0.25,137.781 0,135.278 17.086,133.544 
			16.555,128.301 18.589,128.096 		"/>
		<g>
			<path fill="#4D0FFF" d="M20.813,145.374l-11.77,3.052c-1.655,0.423-2.776,1.151-3.373,2.17c-0.586,1.013-0.699,2.245-0.324,3.688
				c0.373,1.417,1.059,2.429,2.067,3.038c1.013,0.603,2.344,0.688,3.999,0.258l11.769-3.051l0.629,2.437l-11.743,3.038
				c-1.549,0.404-2.933,0.423-4.15,0.079c-1.221-0.351-2.225-0.986-3.019-1.913c-0.784-0.921-1.35-2.046-1.69-3.363
				c-0.342-1.317-0.395-2.568-0.15-3.76c0.239-1.197,0.809-2.238,1.713-3.124c0.899-0.887,2.125-1.536,3.674-1.933l11.739-3.045
				L20.813,145.374z"/>
			<path fill="#4D0FFF" d="M8.803,169.755c0.009-1.092,0.267-2.065,0.774-2.913c0.504-0.841,1.234-1.477,2.187-1.914l1.073,2.45
				c-0.794,0.45-1.338,1.092-1.642,1.934c-0.305,0.847-0.201,1.839,0.298,2.985c0.477,1.1,1.129,1.841,1.953,2.231
				c0.821,0.397,1.661,0.404,2.522,0.027c0.676-0.292,1.143-0.722,1.404-1.271c0.256-0.557,0.375-1.159,0.35-1.814
				c-0.022-0.649-0.114-1.503-0.272-2.555c-0.204-1.298-0.309-2.357-0.316-3.192c0-0.833,0.216-1.635,0.647-2.416
				c0.436-0.781,1.197-1.41,2.292-1.887c0.96-0.423,1.918-0.549,2.872-0.383c0.953,0.166,1.827,0.596,2.621,1.31
				c0.783,0.702,1.432,1.629,1.936,2.774c0.714,1.655,0.899,3.184,0.533,4.601c-0.364,1.41-1.198,2.482-2.508,3.217l-1.104-2.529
				c0.635-0.377,1.079-0.993,1.317-1.84c0.245-0.847,0.139-1.788-0.311-2.813c-0.419-0.96-1.009-1.635-1.771-2.019
				c-0.765-0.39-1.589-0.39-2.486,0c-0.636,0.279-1.082,0.682-1.326,1.225c-0.25,0.543-0.358,1.119-0.338,1.741
				c0.02,0.629,0.106,1.477,0.259,2.556c0.188,1.297,0.278,2.37,0.278,3.217c-0.005,0.841-0.219,1.655-0.647,2.449
				c-0.425,0.789-1.198,1.423-2.31,1.914c-0.856,0.37-1.763,0.502-2.723,0.37c-0.958-0.119-1.867-0.523-2.725-1.211
				c-0.868-0.682-1.563-1.636-2.092-2.847C9.041,171.986,8.79,170.854,8.803,169.755"/>
		</g>
		<polygon fill="#4D0FFF" points="41.586,189.105 39.925,190.29 36.884,186.027 22.892,196.003 21.439,193.964 35.424,183.981 
			32.362,179.691 34.026,178.514 		"/>
		<g>
			<path fill="#4D0FFF" d="M37.884,198.949l2.55,2.674c0.938,0.987,1.887,1.489,2.845,1.517c0.953,0.033,1.833-0.338,2.643-1.113
				c0.828-0.788,1.231-1.642,1.219-2.562c-0.009-0.914-0.491-1.874-1.439-2.867l-2.555-2.675L37.884,198.949z M35.998,211.275
				l2.521-8.738l-2.096-2.198l-5.679,5.429l-1.735-1.814l13.9-13.273l4.286,4.489c0.999,1.046,1.668,2.112,2.003,3.178
				c0.333,1.066,0.364,2.072,0.095,3.012c-0.267,0.947-0.794,1.794-1.583,2.543c-0.953,0.913-2.065,1.442-3.318,1.589
				c-1.256,0.145-2.536-0.219-3.832-1.092l-2.484,9.049L35.998,211.275z"/>
		</g>
		<path fill="#4D0FFF" d="M64.188,204.497l-6.581-1.046l1.14-1.496l6.763,0.814L64.188,204.497z M54.48,218.564l3.104-9.838
			l-8.639,5.634L54.48,218.564z M53.82,220.617l-6.681-5.064l-3.813,2.469l-2.109-1.608l17.092-11.009l2.31,1.754l-6.052,19.402
			l-2.105-1.602L53.82,220.617z"/>
		<polygon fill="#4D0FFF" points="84.967,220.994 76.524,238.099 74.276,236.994 80.564,224.23 68.587,234.188 67.007,233.406 
			67.595,217.803 61.288,230.593 59.037,229.48 67.484,212.368 69.907,213.566 69.258,230.831 82.569,219.808 		"/>
		<polygon fill="#4D0FFF" points="90.632,222.331 84.608,240.589 82.225,239.8 88.249,221.549 		"/>
		<polygon fill="#4D0FFF" points="105.549,226.058 105.11,228.05 99.999,226.906 96.248,243.673 93.803,243.125 97.543,226.362 
			92.401,225.21 92.85,223.217 		"/>
		<polygon fill="#4D0FFF" points="109.984,228.533 109.418,234.935 116.392,235.551 116.211,237.616 109.236,236.994 
			108.653,243.588 116.458,244.276 116.273,246.335 105.972,245.427 107.667,226.256 117.967,227.163 117.782,229.223 		"/>
		<g>
			<path fill="#4D0FFF" d="M124.347,245.878c-1.026-0.403-1.837-0.993-2.446-1.761c-0.605-0.775-0.943-1.688-1.009-2.728
				l2.668-0.125c0.135,0.894,0.545,1.635,1.225,2.218c0.682,0.589,1.644,0.854,2.895,0.788c1.196-0.052,2.125-0.397,2.785-1.026
				c0.657-0.622,0.962-1.409,0.92-2.343c-0.031-0.735-0.263-1.324-0.693-1.768c-0.419-0.438-0.942-0.761-1.558-0.973
				c-0.616-0.212-1.449-0.43-2.493-0.656c-1.278-0.271-2.31-0.556-3.087-0.854c-0.778-0.292-1.454-0.781-2.025-1.463
				c-0.576-0.682-0.892-1.615-0.951-2.813c-0.047-1.046,0.177-1.986,0.673-2.819c0.492-0.835,1.211-1.49,2.152-1.98
				c0.946-0.484,2.041-0.754,3.29-0.814c1.803-0.08,3.297,0.298,4.489,1.145c1.191,0.841,1.889,2.006,2.107,3.489l-2.754,0.126
				c-0.125-0.729-0.542-1.357-1.251-1.887c-0.702-0.53-1.616-0.769-2.734-0.708c-1.048,0.046-1.894,0.357-2.529,0.933
				c-0.636,0.57-0.927,1.344-0.881,2.317c0.033,0.695,0.256,1.258,0.668,1.675c0.422,0.43,0.92,0.741,1.509,0.939
				c0.587,0.206,1.415,0.431,2.474,0.669c1.285,0.291,2.32,0.588,3.107,0.894c0.787,0.298,1.474,0.794,2.056,1.477
				c0.584,0.681,0.908,1.628,0.963,2.839c0.044,0.94-0.166,1.833-0.616,2.674c-0.463,0.855-1.166,1.563-2.114,2.119
				c-0.951,0.562-2.083,0.875-3.407,0.934C126.514,246.454,125.367,246.282,124.347,245.878"/>
		</g>
		<path fill="#4D0FFF" d="M156.321,234.862l-5.949-8.42l-0.743,10.287L156.321,234.862z M157.56,236.643l-8.074,2.245l-0.347,4.535
			l-2.549,0.708l1.572-20.277l2.793-0.774l11.791,16.556l-2.552,0.709L157.56,236.643z"/>
		<g>
			<path fill="#4D0FFF" d="M167.701,216.498l5.905,10.632c0.834,1.497,1.816,2.396,2.948,2.714c1.137,0.318,2.35,0.112,3.654-0.609
				c1.285-0.715,2.092-1.635,2.423-2.767c0.324-1.132,0.079-2.442-0.754-3.939l-5.912-10.625l2.191-1.218l5.899,10.605
				c0.774,1.396,1.149,2.728,1.118,3.998c-0.028,1.271-0.39,2.403-1.087,3.396c-0.7,1.006-1.642,1.827-2.832,2.489
				c-1.191,0.662-2.389,1.026-3.603,1.092c-1.217,0.066-2.368-0.226-3.457-0.875c-1.083-0.648-2.016-1.668-2.793-3.071
				l-5.898-10.605L167.701,216.498z"/>
		</g>
		<polygon fill="#4D0FFF" points="204.462,214.512 202.504,216.088 185.039,210.521 194.653,222.43 192.705,224.006 
			180.612,209.024 182.563,207.449 200.013,212.997 190.417,201.114 192.37,199.532 		"/>
		<g>
			<path fill="#4D0FFF" d="M203.14,194.944c-0.689-1.569-0.936-3.185-0.737-4.853s0.834-3.218,1.899-4.641
				c1.254-1.674,2.756-2.827,4.504-3.468c1.748-0.642,3.575-0.702,5.495-0.166l-1.801,2.403c-1.247-0.265-2.422-0.186-3.523,0.238
				c-1.099,0.431-2.07,1.199-2.904,2.311c-0.809,1.065-1.278,2.218-1.412,3.442c-0.144,1.218,0.066,2.417,0.624,3.588
				c0.554,1.166,1.451,2.21,2.688,3.131c1.223,0.914,2.473,1.469,3.757,1.675c1.287,0.205,2.491,0.066,3.635-0.412
				c1.139-0.482,2.111-1.258,2.915-2.323c0.839-1.112,1.311-2.258,1.417-3.422c0.106-1.166-0.141-2.311-0.754-3.423l1.806-2.402
				c1.039,1.674,1.496,3.429,1.365,5.276c-0.135,1.841-0.833,3.601-2.091,5.269c-1.066,1.423-2.373,2.469-3.919,3.131
				c-1.545,0.669-3.165,0.894-4.866,0.682c-1.702-0.219-3.297-0.881-4.799-2.006C204.938,197.857,203.841,196.513,203.14,194.944"/>
		</g>
		<polygon fill="#4D0FFF" points="227.261,181.956 230.438,176.031 232.234,176.991 227.872,185.134 210.932,176.05 212.116,173.84 
					"/>
		
			<rect x="215.734" y="167.398" transform="matrix(-0.9181 -0.3963 0.3963 -0.9181 365.3939 412.809)" fill="#4D0FFF" width="19.226" height="2.51"/>
		<g>
			<path fill="#4D0FFF" d="M223.033,161.639c-1.208-1.217-2.019-2.654-2.423-4.29c-0.412-1.635-0.373-3.316,0.12-5.031
				c0.581-2.012,1.569-3.627,2.972-4.852c1.404-1.225,3.099-1.92,5.079-2.1l-0.828,2.887c-1.261,0.192-2.331,0.688-3.207,1.477
				c-0.879,0.788-1.508,1.854-1.894,3.204c-0.37,1.291-0.401,2.529-0.097,3.72c0.311,1.206,0.931,2.251,1.867,3.151
				c0.938,0.901,2.145,1.563,3.632,1.986c1.47,0.423,2.836,0.503,4.106,0.239c1.271-0.272,2.357-0.828,3.251-1.682
				c0.894-0.854,1.528-1.926,1.897-3.217c0.386-1.338,0.419-2.576,0.105-3.714c-0.315-1.132-0.957-2.111-1.924-2.946l0.832-2.887
				c1.565,1.199,2.622,2.688,3.151,4.462c0.537,1.78,0.512,3.674-0.07,5.687c-0.49,1.715-1.34,3.157-2.548,4.336
				c-1.208,1.171-2.644,1.96-4.306,2.363c-1.668,0.397-3.4,0.345-5.203-0.171C225.74,163.737,224.242,162.871,223.033,161.639"/>
		</g>
		<polygon fill="#4D0FFF" points="243.886,133.035 234.318,139.966 243.036,140.905 242.766,143.401 223.655,141.336 
			223.927,138.84 232.781,139.793 224.78,130.95 225.118,127.791 233.75,137.489 244.237,129.771 		"/>
		<polygon fill="#1FDECF" points="107.863,161.089 78.896,132.127 92.79,118.239 107.863,133.306 152.054,89.118 165.94,103.006 		
			"/>
	</g>
</g>
</svg>
