<?xml version="1.0" encoding="utf-8"?>
<!-- Generator: Adobe Illustrator 16.0.0, SVG Export Plug-In . SVG Version: 6.00 Build 0)  -->
<!DOCTYPE svg PUBLIC "-//W3C//DTD SVG 1.1//EN" "http://www.w3.org/Graphics/SVG/1.1/DTD/svg11.dtd">
<svg version="1.1" xmlns="http://www.w3.org/2000/svg" xmlns:xlink="http://www.w3.org/1999/xlink" x="0px" y="0px"
	 width="249.752px" height="110.667px" viewBox="0 0 249.752 110.667" enable-background="new 0 0 249.752 110.667"
	 xml:space="preserve">
<g id="_x34_">
</g>
<g id="_x33_">
</g>
<g id="_x32_">
</g>
<g id="_x31_">
	<g>
		<g>
			<rect x="21.689" y="84.036" fill="#1EDFCE" width="206.919" height="5.116"/>
		</g>
		<g>
			<path fill="#4C0FFF" d="M22.868,21.976h6.139l5.989,14.771l5.926-14.771h6.111v21.337h-5.197V30.517l-4.772,12.796h-4.197
				l-4.802-12.826v12.826h-5.196V21.976z"/>
		</g>
		<g>
			<path fill="#4C0FFF" d="M67.73,26.141h-7.872v4.315h6.961v4.014h-6.961v4.681h7.872v4.162H54.66V21.976h13.07V26.141z"/>
		</g>
		<g>
			<path fill="#4C0FFF" d="M82.715,43.527c-4.59,0-8.174-2.281-8.327-6.596h5.532c0.153,1.642,1.186,2.432,2.645,2.432
				c1.521,0,2.492-0.759,2.492-2.007c0-3.951-10.668-1.825-10.607-9.391c0-4.042,3.312-6.291,7.78-6.291
				c4.651,0,7.781,2.309,7.996,6.382h-5.624c-0.091-1.368-1.064-2.189-2.462-2.219c-1.246-0.032-2.188,0.608-2.188,1.945
				c0,3.708,10.548,2.037,10.548,9.179C90.498,40.548,87.701,43.527,82.715,43.527z"/>
		</g>
		<g>
			<path fill="#4C0FFF" d="M107.67,43.527C101.623,43.527,96.7,39,96.7,32.584c0-6.412,4.923-10.91,10.971-10.91
				c6.08,0,10.914,4.498,10.914,10.91C118.584,39,113.72,43.527,107.67,43.527z M107.67,38.786c3.406,0,5.625-2.464,5.625-6.202
				c0-3.8-2.219-6.202-5.625-6.202c-3.465,0-5.654,2.402-5.654,6.202C102.017,36.322,104.205,38.786,107.67,38.786z"/>
		</g>
		<g>
			<path fill="#4C0FFF" d="M144.451,21.976v21.337h-5.199l-8.691-13.16v13.16h-5.199V21.976h5.199l8.691,13.222V21.976H144.451z"/>
		</g>
		<g>
			<path fill="#4C0FFF" d="M42.047,63.937c0,6.32-4.377,10.667-11.186,10.667h-7.993V53.268h7.993
				C37.67,53.268,42.047,57.584,42.047,63.937z M30.526,70.106c3.921,0,6.231-2.249,6.231-6.169c0-3.922-2.31-6.231-6.231-6.231
				h-2.462v12.401H30.526z"/>
		</g>
		<g>
			<path fill="#4C0FFF" d="M45.999,53.268h5.199v21.336h-5.199V53.268z"/>
		</g>
		<g>
			<path fill="#4C0FFF" d="M75.908,60.015h-5.747c-0.788-1.429-2.246-2.188-4.192-2.188c-3.345,0-5.562,2.37-5.562,6.078
				c0,3.953,2.249,6.263,5.987,6.263c2.582,0,4.376-1.369,5.167-3.769h-6.595v-3.83h11.307v4.832
				C75.178,71.078,71.62,74.757,66,74.757c-6.384,0-10.884-4.468-10.884-10.852c0-6.382,4.47-10.881,10.853-10.881
				C71.075,53.023,74.783,55.637,75.908,60.015z"/>
		</g>
		<g>
			<path fill="#4C0FFF" d="M80.195,53.268h5.196v21.336h-5.196V53.268z"/>
		</g>
		<g>
			<path fill="#4C0FFF" d="M89.039,53.268h16.506v4.163h-5.654v17.174h-5.199V57.431h-5.653V53.268z"/>
		</g>
		<g>
			<path fill="#4C0FFF" d="M122.474,70.837h-7.964l-1.277,3.768h-5.441l7.722-21.336h6.018l7.722,21.336h-5.503L122.474,70.837z
				 M118.492,59.012l-2.614,7.812h5.258L118.492,59.012z"/>
		</g>
		<g>
			<path fill="#4C0FFF" d="M137.823,53.268v17.325h6.81v4.011h-12.006V53.268H137.823z"/>
		</g>
		<g>
			<path fill="#4C0FFF" d="M151.858,74.848c-1.854,0-3.099-1.246-3.099-2.797c0-1.609,1.245-2.855,3.099-2.855
				c1.825,0,3.071,1.246,3.071,2.855C154.93,73.602,153.684,74.848,151.858,74.848z"/>
		</g>
		<g>
			<path fill="#4C0FFF" d="M167.613,53.023c5.075,0,8.905,2.857,10.121,7.478h-5.714c-0.884-1.824-2.493-2.735-4.469-2.735
				c-3.192,0-5.382,2.37-5.382,6.139c0,3.77,2.189,6.142,5.382,6.142c1.976,0,3.585-0.914,4.469-2.736h5.714
				c-1.216,4.62-5.046,7.446-10.121,7.446c-6.294,0-10.731-4.468-10.731-10.852C156.882,57.523,161.319,53.023,167.613,53.023z"/>
		</g>
		<g>
			<path fill="#4C0FFF" d="M187.156,53.268v17.325h6.809v4.011h-12.006V53.268H187.156z"/>
		</g>
		<g>
			<polygon fill="#1EDFCE" points="213.439,74.676 205.078,66.312 208.692,62.697 213.439,67.442 224.942,55.938 228.562,59.554 			
				"/>
		</g>
	</g>
</g>
</svg>
