<?xml version="1.0" encoding="utf-8"?>
<!-- Generator: Adobe Illustrator 16.0.0, SVG Export Plug-In . SVG Version: 6.00 Build 0)  -->
<!DOCTYPE svg PUBLIC "-//W3C//DTD SVG 1.1//EN" "http://www.w3.org/Graphics/SVG/1.1/DTD/svg11.dtd">
<svg version="1.1" xmlns="http://www.w3.org/2000/svg" xmlns:xlink="http://www.w3.org/1999/xlink" x="0px" y="0px" width="250px"
	 height="57px" viewBox="0 0 250 57" enable-background="new 0 0 250 57" xml:space="preserve">
<g id="_x34_">
</g>
<g id="_x33_">
</g>
<g id="_x32_">
</g>
<g id="_x31_">
	<g>
		<g>
			<g>
				<path fill="#4C0FFF" d="M17.585,16.551h4.064l3.964,9.779l3.923-9.779h4.044v14.125h-3.441v-8.471l-3.159,8.471h-2.777
					l-3.179-8.491v8.491h-3.441V16.551z"/>
			</g>
			<g>
				<path fill="#4C0FFF" d="M45.544,19.308h-5.211v2.857h4.608v2.656h-4.608v3.098h5.211v2.757h-8.652V16.551h8.652V19.308z"/>
			</g>
			<g>
				<path fill="#4C0FFF" d="M53.407,30.816c-3.038,0-5.413-1.509-5.513-4.366h3.662c0.101,1.086,0.785,1.61,1.75,1.61
					c1.006,0,1.65-0.503,1.65-1.328c0-2.616-7.062-1.208-7.022-6.218c0-2.676,2.193-4.165,5.151-4.165
					c3.078,0,5.151,1.529,5.292,4.225h-3.722c-0.06-0.905-0.704-1.448-1.63-1.468c-0.825-0.02-1.449,0.402-1.449,1.288
					c0,2.455,6.982,1.348,6.982,6.077C58.558,28.845,56.707,30.816,53.407,30.816z"/>
			</g>
			<g>
				<path fill="#4C0FFF" d="M67.753,30.816c-4.004,0-7.264-2.998-7.264-7.243c0-4.245,3.259-7.223,7.264-7.223
					c4.024,0,7.223,2.978,7.223,7.223C74.976,27.819,71.757,30.816,67.753,30.816z M67.753,27.678c2.253,0,3.722-1.629,3.722-4.104
					c0-2.515-1.469-4.105-3.722-4.105c-2.294,0-3.743,1.59-3.743,4.105C64.01,26.048,65.459,27.678,67.753,27.678z"/>
			</g>
			<g>
				<path fill="#4C0FFF" d="M90.216,16.551v14.125h-3.44l-5.755-8.712v8.712h-3.44V16.551h3.44l5.755,8.752v-8.752H90.216z"/>
			</g>
			<g>
				<path fill="#4C0FFF" d="M111.363,23.613c0,4.185-2.897,7.062-7.404,7.062h-5.292V16.551h5.292
					C108.466,16.551,111.363,19.408,111.363,23.613z M103.737,27.698c2.596,0,4.125-1.489,4.125-4.085
					c0-2.595-1.528-4.125-4.125-4.125h-1.629v8.209H103.737z"/>
			</g>
			<g>
				<path fill="#4C0FFF" d="M113.995,16.551h3.441v14.125h-3.441V16.551z"/>
			</g>
			<g>
				<path fill="#4C0FFF" d="M133.788,21.018h-3.804c-0.523-0.946-1.488-1.449-2.776-1.449c-2.213,0-3.682,1.569-3.682,4.024
					c0,2.616,1.489,4.145,3.964,4.145c1.71,0,2.897-0.905,3.42-2.495h-4.366v-2.535h7.485v3.199
					c-0.725,2.435-3.079,4.869-6.801,4.869c-4.226,0-7.204-2.958-7.204-7.183s2.958-7.203,7.183-7.203
					C130.588,16.39,133.043,18.121,133.788,21.018z"/>
			</g>
			<g>
				<path fill="#4C0FFF" d="M136.743,16.551h3.44v14.125h-3.44V16.551z"/>
			</g>
			<g>
				<path fill="#4C0FFF" d="M142.172,16.551h10.927v2.757h-3.743v11.368h-3.44V19.308h-3.743V16.551z"/>
			</g>
			<g>
				<path fill="#4C0FFF" d="M162.359,28.181h-5.271l-0.846,2.495h-3.602l5.11-14.125h3.984l5.111,14.125h-3.642L162.359,28.181z
					 M159.723,20.354l-1.73,5.171h3.481L159.723,20.354z"/>
			</g>
			<g>
				<path fill="#4C0FFF" d="M172.238,16.551V28.02h4.507v2.656h-7.947V16.551H172.238z"/>
			</g>
			<g>
				<path fill="#4C0FFF" d="M181.369,30.837c-1.228,0-2.052-0.825-2.052-1.851c0-1.067,0.824-1.892,2.052-1.892
					c1.207,0,2.032,0.825,2.032,1.892C183.401,30.012,182.576,30.837,181.369,30.837z"/>
			</g>
			<g>
				<path fill="#4C0FFF" d="M192.016,16.39c3.36,0,5.896,1.891,6.7,4.95h-3.783c-0.583-1.208-1.649-1.812-2.957-1.812
					c-2.113,0-3.562,1.57-3.562,4.064s1.448,4.064,3.562,4.064c1.308,0,2.374-0.604,2.957-1.811h3.783
					c-0.805,3.059-3.34,4.93-6.7,4.93c-4.165,0-7.103-2.958-7.103-7.183S187.851,16.39,192.016,16.39z"/>
			</g>
			<g>
				<path fill="#4C0FFF" d="M204.756,16.551V28.02h4.507v2.656h-7.947V16.551H204.756z"/>
			</g>
		</g>
		<g>
			<g>
				<rect x="16.338" y="37.144" fill="#1EDFCE" width="216.419" height="3.451"/>
			</g>
			<g>
				<polygon fill="#1EDFCE" points="222.521,30.827 216.879,25.184 219.318,22.743 222.521,25.947 230.284,18.184 232.725,20.624 
									"/>
			</g>
		</g>
	</g>
</g>
</svg>
